<svg width="118" height="22" viewBox="0 0 118 22" xmlns="http://www.w3.org/2000/svg"><title>parliament-uk--darkgrey</title><path d="M24.426 13.043c0-1.022-.04-1.847-.079-2.593h1.298l.079 1.375h.04c.59-.982 1.533-1.532 2.831-1.532 1.928 0 3.344 1.61 3.344 4.007 0 2.829-1.731 4.243-3.619 4.243-1.062 0-1.967-.472-2.439-1.257h-.039v4.321h-1.416v-8.564zm1.416 2.121c0 .197.04.393.079.59.275.982 1.14 1.689 2.163 1.689 1.534 0 2.4-1.257 2.4-3.064 0-1.572-.827-2.947-2.36-2.947-.984 0-1.889.707-2.164 1.768-.04.196-.118.393-.118.59v1.374zM39.333 16.5c0 .668.04 1.375.118 1.886h-1.298l-.118-.982h-.039c-.433.628-1.298 1.178-2.439 1.178-1.612 0-2.438-1.14-2.438-2.278 0-1.925 1.691-2.947 4.759-2.947V13.2c0-.668-.197-1.846-1.81-1.846-.747 0-1.494.235-2.045.589L33.71 11c.668-.432 1.612-.707 2.596-.707 2.438 0 3.028 1.65 3.028 3.221V16.5zm-1.416-2.16c-1.573-.04-3.343.235-3.343 1.767 0 .943.63 1.375 1.377 1.375a2.014 2.014 0 0 0 1.927-1.336c.04-.157.079-.314.079-.471l-.04-1.336zm3.737-1.415c0-.943 0-1.729-.079-2.475h1.259l.04 1.571h.078c.354-1.06 1.22-1.728 2.203-1.728.157 0 .275 0 .393.04v1.374c-.157-.04-.315-.04-.511-.04-1.023 0-1.731.787-1.928 1.847a3.488 3.488 0 0 0-.078.668v4.204h-1.416v-5.461h.039zm5.428-6.168h1.455v11.629h-1.455zM52.55 8.25c0 .51-.355.864-.905.864a.848.848 0 0 1-.866-.864.89.89 0 0 1 .905-.904c.511 0 .865.393.865.904zm-1.613 10.136V10.45h1.455v7.936h-1.455zm9.4-1.886c0 .668.04 1.375.118 1.886h-1.298l-.118-.982H59c-.433.628-1.298 1.178-2.439 1.178-1.612 0-2.438-1.14-2.438-2.278 0-1.925 1.691-2.947 4.759-2.947V13.2c0-.668-.197-1.846-1.81-1.846-.747 0-1.494.235-2.045.589L54.713 11c.668-.432 1.612-.707 2.596-.707 2.438 0 3.028 1.65 3.028 3.221V16.5zm-1.376-2.16c-1.574-.04-3.344.235-3.344 1.767 0 .943.63 1.375 1.377 1.375a2.014 2.014 0 0 0 1.927-1.336 1.97 1.97 0 0 0 .079-.471l-.04-1.336zm3.697-1.73c0-.824 0-1.492-.079-2.16h1.259l.079 1.257h.039c.433-.746 1.18-1.453 2.478-1.453 1.062 0 1.888.667 2.242 1.571h.04a3.22 3.22 0 0 1 .865-1.021c.472-.354.983-.55 1.77-.55 1.062 0 2.596.667 2.596 3.417v4.675H72.53v-4.439c0-1.532-.551-2.436-1.731-2.436-.826 0-1.455.59-1.691 1.297a2.052 2.052 0 0 0-.118.707v4.91h-1.416v-4.753c0-1.257-.551-2.16-1.652-2.16-.905 0-1.574.707-1.77 1.453a2.052 2.052 0 0 0-.118.707v4.793h-1.416v-5.814h.039zm14.475 2.083c.039 1.964 1.258 2.75 2.714 2.75a5.969 5.969 0 0 0 2.202-.393l.236 1.021c-.511.236-1.376.511-2.635.511-2.439 0-3.894-1.61-3.894-4.007 0-2.396 1.416-4.282 3.737-4.282 2.596 0 3.264 2.278 3.264 3.732 0 .314-.039.51-.039.668h-5.585zm4.208-1.022c0-.903-.393-2.357-2.006-2.357-1.455 0-2.084 1.336-2.202 2.357h4.208zm3.186-1.061c0-.824 0-1.492-.078-2.16h1.258l.079 1.296h.04c.393-.746 1.297-1.492 2.635-1.492 1.101 0 2.792.667 2.792 3.378v4.714h-1.455V13.83c0-1.258-.472-2.358-1.849-2.358-.944 0-1.691.668-1.927 1.454-.079.196-.079.432-.079.668v4.753h-1.455l.04-5.735zm10.778-4.046v1.886h2.045v1.1h-2.045v4.282c0 .982.275 1.532 1.062 1.532.393 0 .629-.039.826-.118l.078 1.061c-.275.118-.708.197-1.258.197-.669 0-1.22-.236-1.574-.629-.393-.432-.55-1.14-.55-2.043v-4.321h-1.22v-1.1h1.22V8.957l1.416-.393zm4.248 10.018c-.551 0-.944-.432-.944-1.021 0-.59.393-1.022.983-1.022s.983.432.983 1.022c-.039.55-.432 1.021-1.022 1.021zm9.4-2.357c0 .825 0 1.532.079 2.16h-1.259l-.078-1.296h-.04c-.393.629-1.219 1.454-2.635 1.454-1.259 0-2.753-.668-2.753-3.457V10.45h1.455v4.4c0 1.493.472 2.514 1.77 2.514.983 0 1.652-.668 1.888-1.296.079-.197.118-.472.118-.747V10.45h1.455v5.775zm3.816-2.121c.236-.275.511-.629.747-.904l2.32-2.75h1.731l-3.068 3.26L118 18.387h-1.77l-2.753-3.811-.748.825v2.986h-1.416V6.757h1.416v7.347h.04zM17.7 19.486v-.393h.04a.872.872 0 0 0 .865-.864v-1.297a.872.872 0 0 0-.866-.864H17.7v-.354h.04a.872.872 0 0 0 .865-.864v-1.296a.872.872 0 0 0-.866-.865H17.7v-.353h.04a.872.872 0 0 0 .865-.865v-1.296a.872.872 0 0 0-.866-.864H17.7v-.393a1.54 1.54 0 0 0 .787-.51c.157-.197.236-.472.236-.708 0-.707-.551-1.257-1.259-1.257-.511 0-.983.314-1.18.786a.547.547 0 0 0-.079.235h-.629v-.55l.59-.982L18.329 2.2s-.432-.236-.747-.393c-.157-.078-.315-.236-.433-.353l-.039-.04c-.04-.039-.079-.039-.157-.039a.269.269 0 0 0-.276.275c.079.079.158.196.236.314.158.197.276.432.315.747.079.353-.118.707-.315.785-.196.079-.629-.117-.826-.51-.157-.393-.078-.982-.354-.943-.275.04-.039.746-.196 1.257-.158.51-.512.825-.394.943s.315-.118.512-.236c.196-.118.511-.393.786-.118.236.236.079.668-.668 1.1-.433.236-.905.432-1.259.472-.275.039-.511 0-.669-.157a.76.76 0 0 1-.236-.511l.04-.04a.76.76 0 0 0 .196-.353.987.987 0 0 0-.078-.59c.118-.196.275-.51.59-.55.511-.078.747.433.747.433s.472-.825.118-1.14c-.236-.235-.983.158-1.259.315.04-.118.079-.275.118-.393a2.86 2.86 0 0 0-.078-1.729 3.074 3.074 0 0 0-.905 1.493c-.04.079-.04.197-.04.275-.196-.275-.59-.864-.904-.785-.433.117-.433 1.021-.433 1.021s.433-.314.787 0c.275.236.275.707.236.864a.669.669 0 0 0-.393.511.665.665 0 0 0 0 .393v.04c-.236.196-.669.431-1.141.431-.315 0-.55-.118-.747-.314-.236-.236-.394-.59-.512-.982v-.04c-.118-.47-.157-1.178-.157-1.178s.315-.118.708.157c0 0 .04 0 .04.04.471.353.471.785.707.785.197 0 .158-.668.197-1.14.04-.628.197-.981.197-.981.039-.04 0-.157-.079-.157-.118-.158-.157-.04-.157-.04s0 .315-.59.59c-.079.039-.118.039-.197.078-.354.079-.669-.04-.669-.04s-.157-.47.276-.942a.858.858 0 0 1 .196-.157c.118-.079.276-.157.433-.197.157-.039.315-.078.433-.078V.275c0-.157-.118-.236-.236-.275-.079 0-.158.04-.236.04-.236.039-.472.078-.669.117a4.44 4.44 0 0 1-.747.04c-.236 0-.512 0-.748-.04S8.181.08 7.985.04c-.04 0-.118-.04-.197-.04-.118.04-.236.157-.236.275v.118c.118 0 .275.04.472.118.157.039.275.118.433.196a.69.69 0 0 1 .196.157c.472.472.315.943.315.943s-.354.079-.708 0c-.079 0-.118-.04-.197-.078-.59-.275-.629-.59-.629-.59s-.04-.118-.157-.078c-.079.039-.079.118-.079.157 0 0 .157.314.197.982.039.471 0 1.14.196 1.14.236 0 .236-.433.708-.786 0 0 .04 0 .04-.04.393-.235.747-.157.747-.157s-.04.747-.197 1.179v.039c-.118.393-.275.746-.511.982a1.008 1.008 0 0 1-.747.314c-.472 0-.866-.235-1.141-.432V4.4a.669.669 0 0 0 0-.393c-.04-.236-.197-.393-.393-.51-.04-.197-.04-.63.236-.865.393-.314.786 0 .786 0s0-.903-.432-1.021c-.276-.079-.708.51-.905.785 0-.078-.04-.196-.04-.275A3.074 3.074 0 0 0 4.839.63a2.874 2.874 0 0 0-.079 1.728c.04.118.079.275.118.393-.236-.079-.944-.432-1.18-.236-.354.315.118 1.14.118 1.14s.236-.511.748-.433c.314.04.511.354.59.55a.626.626 0 0 0-.079.59.76.76 0 0 0 .197.353l.039.04c-.04.157-.118.353-.236.51-.157.157-.393.197-.669.157-.393-.039-.826-.235-1.258-.471-.787-.393-.944-.825-.708-1.06.275-.236.59 0 .786.117.197.118.394.314.512.236.118-.118-.236-.432-.394-.943-.196-.51.079-1.218-.196-1.257-.276-.04-.197.55-.354.943-.158.393-.59.55-.826.51-.197-.078-.433-.392-.354-.942.078-.275.196-.511.354-.747.078-.118.157-.196.236-.314a.269.269 0 0 0-.276-.275c-.039 0-.118 0-.157.04-.04 0-.04.038-.04.038-.157.158-.275.315-.471.393a7.727 7.727 0 0 1-.748.393l2.164 3.732.59.982v.511h-.59c0-.078-.04-.157-.079-.236a1.248 1.248 0 0 0-1.18-.785c-.708 0-1.259.55-1.259 1.257 0 .275.079.51.236.707.197.275.472.471.787.51v.394h-.04a.872.872 0 0 0-.865.864v1.296c0 .472.394.865.866.865h.039v.353h-.04a.872.872 0 0 0-.865.864v1.297c0 .471.394.864.866.864h.039v.354h-.04a.872.872 0 0 0-.865.864v1.296c0 .472.394.865.866.865h.039v.393a1.269 1.269 0 0 0-1.023 1.257c0 .707.551 1.257 1.259 1.257.708 0 1.259-.55 1.259-1.257 0-.629-.433-1.14-1.023-1.257v-.393h.04a.872.872 0 0 0 .865-.865v-1.297a.872.872 0 0 0-.866-.864v-.354h.04a.872.872 0 0 0 .865-.864v-1.297a.872.872 0 0 0-.865-.864h-.04v-.353h.04a.872.872 0 0 0 .865-.865v-1.297a.872.872 0 0 0-.865-.863h-.04V8.76c.512-.118.905-.511.984-.982h.629V20.86h.59l.59-1.415.472-1.1h-.472V16.58h1.652v1.767h-.472l.472 1.14.55 1.296.551-1.336.472-1.1h-.472V16.58H8.89v1.767h-.472l.472 1.14.551 1.296.55-1.336.473-1.139H9.99V16.54h1.652v1.768h-.472l.472 1.14.55 1.296.551-1.336.472-1.1h-.472V16.54h1.652v1.768h-.472l.472 1.14.59 1.374h.59V7.857h.63c.117.51.51.904.983.982v.393h-.04a.872.872 0 0 0-.865.864v1.337c0 .47.393.863.865.863h.04v.354h-.04a.872.872 0 0 0-.865.864v1.297c0 .471.393.864.865.864h.04v.354h-.04a.872.872 0 0 0-.865.864v1.297c0 .47.393.864.865.864h.04v.392a1.269 1.269 0 0 0-1.023 1.258c0 .707.55 1.257 1.259 1.257.708 0 1.258-.55 1.258-1.257.04-.59-.393-1.1-.983-1.218zM2.203 20.743a.746.746 0 1 1-1.495 0c0-.314.197-.629.511-.707v.196c0 .118.118.236.236.236a.254.254 0 0 0 .236-.236v-.196a.731.731 0 0 1 .512.707zm-.472-4.164c.118 0 .196.039.275.117.079.079.079.158.079.236v1.296a.42.42 0 0 1-.079.236.357.357 0 0 1-.275.118h-.04v-.236c0-.117-.078-.235-.236-.235h-.079a.254.254 0 0 0-.235.235v.236H1.1a.357.357 0 0 1-.275-.118c0-.078-.04-.157-.04-.235v-1.296c0-.08.04-.158.08-.237a.357.357 0 0 1 .275-.117h.039v.235c0 .118.118.236.236.236h.079c.118 0 .196-.118.196-.236l.04-.235c-.04 0-.04 0 0 0zm0-3.418c.118 0 .196.039.275.118.079.078.079.157.079.235v1.296a.42.42 0 0 1-.079.236.357.357 0 0 1-.275.118h-.04v-.235c0-.118-.078-.236-.236-.236h-.079c-.117 0-.196.118-.196.236v.235h-.04a.357.357 0 0 1-.275-.118c-.039-.039-.078-.117-.078-.235v-1.296c0-.08.039-.158.078-.236a.357.357 0 0 1 .276-.118h.039v.235c0 .118.118.236.236.236h.079c.118 0 .196-.118.196-.236l.04-.235c-.04 0-.04 0 0 0zm0-3.379a.36.36 0 0 1 .275.118c.079.079.079.157.079.236v1.296a.42.42 0 0 1-.079.236c-.118.078-.197.118-.275.118h-.04v-.236c0-.118-.078-.236-.236-.236h-.079c-.117-.039-.196.079-.196.197v.275h-.04a.357.357 0 0 1-.275-.118c-.039-.079-.078-.157-.078-.236v-1.296c0-.079.039-.157.078-.236a.357.357 0 0 1 .276-.118h.039v.236c0 .118.118.236.236.236h.079c.118 0 .196-.118.196-.236l.04-.236c-.04 0-.04 0 0 0zM1.69 8.33v-.197a.269.269 0 0 0-.275-.275c-.118 0-.236.118-.236.275v.197a.628.628 0 0 1-.354-.275.842.842 0 0 1-.157-.472c0-.432.354-.746.747-.746.315 0 .59.196.708.471v.04h-.197c-.157 0-.236.078-.275.235v.04c0 .157.118.235.275.235h.236a.798.798 0 0 1-.472.472zm4.445 7.15H4.484v-1.73h1.652v1.729zm0-2.829H4.484v-1.768h1.652v1.768zm0-2.829H4.484V8.054h1.652V9.82zm2.753 5.658H7.237v-1.73H8.89v1.729zm0-2.829H7.237v-1.768H8.89v1.768zm0-2.829H7.237V8.054H8.89V9.82zm2.754 5.658H9.99v-1.73h1.652v1.729zm0-2.829H9.99v-1.768h1.652v1.768zm0-2.829H9.99V8.054h1.652V9.82zm2.753 5.658h-1.652v-1.73h1.652v1.729zm0-2.829h-1.652v-1.768h1.652v1.768zm0-2.829h-1.652V8.054h1.652V9.82zm-1.652-2.985h-8.26v-.432a24.97 24.97 0 0 1 1.652-.433c1.062-.235 2.163-.314 3.304-.314 1.14 0 2.242.118 3.304.314.55.118 1.101.275 1.652.433v.432h-1.652zm3.973 1.021h.236c.157 0 .275-.118.275-.236v-.039c0-.118-.118-.236-.275-.236h-.236v-.039a.777.777 0 0 1 .708-.471c.432 0 .747.353.747.746 0 .157-.04.314-.157.472-.079.117-.197.196-.354.275v-.197c0-.157-.118-.236-.236-.236-.158 0-.236.118-.236.236v.197a.798.798 0 0 1-.472-.472zm.432 3.929a.357.357 0 0 1-.275-.118c-.079-.079-.079-.157-.079-.236v-1.296a.42.42 0 0 1 .079-.236.357.357 0 0 1 .275-.118h.04v.236c0 .118.078.236.196.236h.079c.118 0 .197-.118.236-.236v-.236h.04a.36.36 0 0 1 .275.118c.039.079.078.157.078.236v1.296c0 .079-.039.157-.078.236a.357.357 0 0 1-.276.118H17.7v-.236c0-.118-.079-.236-.236-.236h-.079a.254.254 0 0 0-.236.236v.236zm0 3.378a.357.357 0 0 1-.275-.118c-.079-.078-.079-.157-.079-.235v-1.296a.42.42 0 0 1 .079-.236.357.357 0 0 1 .275-.118h.04v.235c0 .118.078.236.196.236h.079c.118 0 .197-.118.236-.236v-.235h.04c.117 0 .196.039.275.118a.558.558 0 0 1 .078.235v1.296c0 .08-.039.158-.078.236a.357.357 0 0 1-.276.118H17.7v-.235c0-.118-.079-.236-.236-.236h-.079a.254.254 0 0 0-.236.236v.235zm0 3.418a.357.357 0 0 1-.275-.118c-.079-.078-.079-.157-.079-.235v-1.296a.42.42 0 0 1 .079-.237.357.357 0 0 1 .275-.117h.04v.235c0 .118.078.236.196.236h.079c.118 0 .197-.118.236-.236v-.235h.04a.36.36 0 0 1 .275.117c.039.079.078.158.078.236v1.296c0 .08-.039.158-.078.236a.357.357 0 0 1-.276.118H17.7v-.236c0-.117-.079-.235-.236-.235h-.079a.254.254 0 0 0-.236.235v.236zm.315 2.907a.746.746 0 0 1-.747-.746c0-.314.196-.629.511-.707v.196c0 .118.118.236.236.236a.254.254 0 0 0 .236-.236v-.196a.755.755 0 0 1 .511.707.773.773 0 0 1-.747.746z" fill="#333"/></svg>
