<svg width="134" height="25" viewBox="0 0 134 25" xmlns="http://www.w3.org/2000/svg"><title>parliament-uk--white-25</title><path d="M27.738 14.821c0-1.16-.045-2.098-.09-2.946h1.475l.089 1.563h.045c.67-1.117 1.742-1.742 3.216-1.742 2.188 0 3.796 1.83 3.796 4.554 0 3.214-1.965 4.821-4.109 4.821-1.206 0-2.233-.535-2.77-1.428h-.044v4.91h-1.608v-9.732zm1.608 2.411c0 .223.045.447.09.67.312 1.116 1.295 1.92 2.456 1.92 1.742 0 2.725-1.43 2.725-3.483 0-1.785-.938-3.348-2.68-3.348-1.117 0-2.144.804-2.457 2.009-.045.223-.134.446-.134.67v1.562zm15.32 1.518c0 .759.045 1.563.135 2.143h-1.474l-.134-1.116h-.045c-.491.714-1.474 1.34-2.77 1.34-1.83 0-2.769-1.296-2.769-2.59 0-2.188 1.921-3.348 5.405-3.348V15c0-.759-.223-2.098-2.055-2.098-.848 0-1.697.268-2.322.67l-.358-1.072c.76-.491 1.832-.804 2.948-.804 2.77 0 3.44 1.875 3.44 3.661v3.393zm-1.607-2.455c-1.787-.045-3.797.267-3.797 2.009 0 1.071.715 1.562 1.563 1.562a2.288 2.288 0 0 0 2.189-1.518c.045-.178.09-.357.09-.535l-.045-1.518zm4.243-1.608c0-1.07 0-1.964-.09-2.812h1.43l.045 1.786h.089c.402-1.206 1.385-1.965 2.501-1.965.179 0 .313 0 .447.045v1.563c-.179-.045-.357-.045-.58-.045-1.162 0-1.966.893-2.19 2.098a3.93 3.93 0 0 0-.089.76v4.776h-1.608v-6.206h.045zm6.164-7.008h1.653v13.214h-1.653V7.679zm6.209 1.696c0 .58-.402.982-1.028.982a.963.963 0 0 1-.982-.982c0-.58.446-1.027 1.027-1.027.58 0 .983.447.983 1.027zm-1.832 11.518v-9.018h1.653v9.018h-1.653zM68.52 18.75c0 .759.044 1.563.134 2.143H67.18l-.134-1.116H67c-.491.714-1.474 1.34-2.77 1.34-1.83 0-2.769-1.296-2.769-2.59 0-2.188 1.921-3.348 5.405-3.348V15c0-.759-.223-2.098-2.055-2.098-.848 0-1.697.268-2.322.67L62.13 12.5c.76-.491 1.832-.804 2.948-.804 2.77 0 3.44 1.875 3.44 3.661v3.393zm-1.564-2.455c-1.786-.045-3.796.267-3.796 2.009 0 1.071.714 1.562 1.563 1.562a2.29 2.29 0 0 0 2.189-1.518 2.24 2.24 0 0 0 .089-.535l-.045-1.518zm4.199-1.965c0-.937 0-1.696-.09-2.455h1.43l.09 1.429h.044c.491-.849 1.34-1.652 2.814-1.652 1.206 0 2.144.759 2.546 1.786h.045c.268-.492.625-.893.982-1.161.536-.402 1.117-.625 2.01-.625 1.206 0 2.948.759 2.948 3.884v5.312h-1.608v-5.044c0-1.742-.625-2.768-1.965-2.768-.938 0-1.653.67-1.92 1.473-.09.223-.135.536-.135.803v5.58h-1.608v-5.4c0-1.43-.625-2.456-1.876-2.456-1.027 0-1.786.803-2.01 1.652a2.337 2.337 0 0 0-.134.803v5.447H71.11V14.33h.045zm16.437 2.366c.045 2.233 1.43 3.125 3.082 3.125 1.162 0 1.876-.223 2.502-.446l.268 1.16c-.581.269-1.564.581-2.993.581-2.77 0-4.422-1.83-4.422-4.553 0-2.724 1.608-4.867 4.243-4.867 2.948 0 3.708 2.59 3.708 4.242 0 .357-.045.58-.045.758h-6.343zm4.78-1.16c0-1.027-.447-2.679-2.278-2.679-1.653 0-2.368 1.518-2.502 2.679h4.78zm3.618-1.206c0-.937 0-1.696-.09-2.455h1.43l.089 1.473h.045c.446-.848 1.474-1.696 2.992-1.696 1.251 0 3.172.759 3.172 3.84v5.356h-1.653v-5.134c0-1.428-.536-2.678-2.1-2.678-1.071 0-1.92.759-2.188 1.652-.09.223-.09.49-.09.758v5.402h-1.652l.045-6.518zm12.238-4.598v2.143h2.323v1.25h-2.323v4.866c0 1.116.313 1.741 1.206 1.741.447 0 .715-.044.938-.134l.09 1.206c-.313.134-.804.223-1.43.223-.759 0-1.384-.268-1.786-.715-.447-.49-.626-1.294-.626-2.32V13.08h-1.384v-1.25h1.384v-1.65l1.608-.447zm4.824 11.384c-.625 0-1.072-.491-1.072-1.16 0-.67.447-1.161 1.117-1.161.67 0 1.117.49 1.117 1.16-.045.625-.492 1.161-1.162 1.161zm10.676-2.678c0 .937 0 1.74.089 2.455h-1.43l-.089-1.473h-.044c-.447.714-1.385 1.651-2.993 1.651-1.43 0-3.127-.759-3.127-3.928v-5.268h1.653v5c0 1.696.536 2.857 2.01 2.857 1.117 0 1.876-.759 2.144-1.473.09-.223.134-.536.134-.848v-5.536h1.653v6.563zm4.332-2.411c.268-.313.581-.715.849-1.027l2.635-3.125h1.966l-3.484 3.705L134 20.893h-2.01l-3.127-4.33-.848.937v3.393h-1.608V7.679h1.608v8.348h.044zM20.1 22.143v-.447h.045a.991.991 0 0 0 .982-.982v-1.473a.991.991 0 0 0-.982-.982H20.1v-.402h.045a.991.991 0 0 0 .982-.982v-1.473a.991.991 0 0 0-.982-.982H20.1v-.402h.045a.991.991 0 0 0 .982-.982v-1.473a.991.991 0 0 0-.982-.983H20.1v-.446c.357-.09.67-.313.893-.58.179-.224.268-.536.268-.804a1.41 1.41 0 0 0-1.429-1.429c-.58 0-1.117.358-1.34.893-.045.09-.09.179-.09.268h-.714v-.625l.67-1.116L20.815 2.5s-.492-.268-.849-.446c-.179-.09-.357-.268-.491-.402l-.045-.045c-.045-.044-.09-.044-.179-.044a.305.305 0 0 0-.312.312c.089.09.178.223.268.357.178.223.312.491.357.848.09.402-.134.804-.357.893-.224.09-.715-.134-.938-.58-.179-.447-.09-1.116-.402-1.072-.313.045-.045.849-.224 1.429-.178.58-.58.938-.446 1.071.134.134.357-.133.58-.267.224-.134.581-.447.894-.134.268.268.089.759-.76 1.25-.491.268-1.027.49-1.429.535-.313.045-.58 0-.76-.178a.864.864 0 0 1-.267-.58l.044-.045A.863.863 0 0 0 15.723 5c.044-.223 0-.491-.09-.67.134-.223.313-.58.67-.625.581-.089.849.491.849.491s.536-.937.134-1.294c-.268-.268-1.117.178-1.43.357.045-.134.09-.313.135-.446A3.251 3.251 0 0 0 15.9.847a3.494 3.494 0 0 0-1.027 1.697c-.045.089-.045.223-.045.312-.223-.312-.67-.982-1.027-.893-.491.134-.491 1.161-.491 1.161s.491-.357.893 0c.313.268.313.804.268.982a.76.76 0 0 0-.447.58.756.756 0 0 0 0 .447v.045c-.268.223-.759.49-1.295.49-.357 0-.625-.133-.849-.356-.268-.268-.446-.67-.58-1.117v-.044c-.134-.536-.179-1.34-.179-1.34s.357-.133.804.18c0 0 .045 0 .045.044.536.401.536.893.804.893.223 0 .178-.76.223-1.295.045-.714.223-1.116.223-1.116.045-.045 0-.179-.089-.179-.134-.178-.179-.044-.179-.044s0 .357-.67.67c-.089.044-.134.044-.223.089-.402.089-.76-.045-.76-.045s-.178-.536.313-1.071a1 1 0 0 1 .224-.18 1.66 1.66 0 0 1 .491-.222c.179-.045.357-.09.491-.09V.312c0-.178-.134-.267-.268-.312-.089 0-.178.045-.268.045a22.44 22.44 0 0 0-.759.134c-.268.044-.536.044-.849.044-.268 0-.58 0-.848-.044-.268-.045-.536-.09-.76-.134C9.023.045 8.933 0 8.844 0c-.134.045-.268.179-.268.313v.133c.134 0 .313.045.536.134.179.045.313.134.491.224.09.044.134.089.224.178.536.536.357 1.072.357 1.072s-.402.089-.804 0c-.09 0-.134-.045-.223-.09-.67-.312-.715-.67-.715-.67s-.045-.133-.179-.089c-.089.045-.089.134-.089.179 0 0 .179.357.223 1.116.045.536 0 1.295.224 1.295.268 0 .268-.491.804-.893 0 0 .044 0 .044-.045.447-.268.849-.178.849-.178s-.045.848-.223 1.339v.045c-.134.446-.313.848-.581 1.116a1.144 1.144 0 0 1-.849.357c-.536 0-.982-.268-1.295-.491V5a.76.76 0 0 0 0-.446c-.045-.268-.223-.447-.447-.58-.044-.224-.044-.715.268-.983.447-.357.894 0 .894 0s0-1.027-.492-1.16c-.312-.09-.804.58-1.027.892 0-.09-.045-.223-.045-.312A3.494 3.494 0 0 0 5.494.714a3.269 3.269 0 0 0-.09 1.965c.045.134.09.312.135.446-.268-.09-1.072-.491-1.34-.268-.402.357.134 1.295.134 1.295s.268-.58.848-.491c.358.044.581.401.67.625a.712.712 0 0 0-.089.67.863.863 0 0 0 .223.401l.045.045a1.692 1.692 0 0 1-.268.58c-.179.179-.447.223-.76.179-.446-.045-.937-.268-1.429-.536-.893-.446-1.072-.938-.804-1.205.313-.268.67 0 .894.134.223.133.446.357.58.267.134-.133-.268-.49-.446-1.071-.224-.58.089-1.384-.224-1.429-.312-.044-.223.625-.402 1.072-.178.446-.67.625-.938.58-.223-.09-.491-.446-.402-1.071.09-.313.224-.58.402-.848.09-.134.179-.224.268-.358a.305.305 0 0 0-.312-.312c-.045 0-.134 0-.179.045-.045 0-.045.044-.045.044-.178.179-.312.357-.536.447a8.76 8.76 0 0 1-.848.446l2.456 4.241.67 1.116v.58h-.67a.626.626 0 0 0-.089-.267 1.417 1.417 0 0 0-1.34-.893A1.41 1.41 0 0 0 .178 8.57c0 .313.09.58.269.804.223.313.536.536.893.58v.447h-.045a.991.991 0 0 0-.982.982v1.473a.99.99 0 0 0 .982.982h.045v.402h-.045a.991.991 0 0 0-.982.982v1.473c0 .536.446.983.982.983h.045v.401h-.045a.991.991 0 0 0-.982.983v1.473a.99.99 0 0 0 .982.982h.045v.446a1.441 1.441 0 0 0-1.161 1.429 1.41 1.41 0 0 0 1.429 1.428 1.41 1.41 0 0 0 1.43-1.428c0-.714-.492-1.295-1.162-1.429v-.446h.045a.991.991 0 0 0 .982-.982v-1.474a.991.991 0 0 0-.982-.982v-.401h.044a.991.991 0 0 0 .983-.983v-1.473a.991.991 0 0 0-.983-.982h-.044v-.402h.044a.991.991 0 0 0 .983-.982v-1.473a.991.991 0 0 0-.983-.982h-.044v-.447c.58-.134 1.027-.58 1.116-1.116h.715v14.866h.67l.67-1.607.536-1.25h-.536V18.84h1.876v2.01h-.536l.536 1.294.625 1.473.626-1.518.536-1.25h-.536V18.84h1.876v2.01h-.536l.536 1.294.625 1.473.625-1.518.536-1.294h-.536v-2.01h1.876v2.01h-.536l.536 1.294.626 1.473.625-1.517.536-1.25h-.536v-2.01h1.876v2.01h-.536l.536 1.294.67 1.563h.67V8.929h.715c.134.58.58 1.026 1.116 1.116v.446h-.044a.991.991 0 0 0-.983.982v1.518c0 .536.447.982.983.982h.044v.402h-.044a.991.991 0 0 0-.983.982v1.473c0 .536.447.983.983.983h.044v.401h-.044a.991.991 0 0 0-.983.982v1.474c0 .535.447.982.983.982h.044v.446a1.441 1.441 0 0 0-1.161 1.429 1.41 1.41 0 0 0 1.43 1.428 1.41 1.41 0 0 0 1.429-1.428c.044-.67-.447-1.25-1.117-1.384zM2.501 23.57a.848.848 0 1 1-1.697 0c0-.357.223-.714.58-.803v.223c0 .134.135.268.269.268a.288.288 0 0 0 .268-.268v-.223a.83.83 0 0 1 .58.803zm-.536-4.732c.134 0 .224.045.313.134.09.09.09.179.09.268v1.473c0 .09-.045.224-.09.268a.406.406 0 0 1-.313.134h-.044v-.268c0-.134-.09-.268-.268-.268h-.09a.288.288 0 0 0-.268.268v.268h-.044a.406.406 0 0 1-.313-.134c0-.09-.045-.178-.045-.268V19.24c0-.09.045-.178.09-.268a.406.406 0 0 1 .312-.134h.045v.268c0 .134.134.268.268.268h.09c.133 0 .223-.134.223-.268l.044-.268c-.044 0-.044 0 0 0zm0-3.884c.134 0 .224.045.313.134.09.09.09.179.09.268v1.473c0 .09-.045.224-.09.268a.406.406 0 0 1-.313.134h-.044v-.268c0-.134-.09-.268-.268-.268h-.09c-.134 0-.223.134-.223.268v.268h-.045a.406.406 0 0 1-.312-.134c-.045-.044-.09-.134-.09-.268v-1.473c0-.09.045-.178.09-.268a.406.406 0 0 1 .312-.134h.045v.268c0 .134.134.268.268.268h.09c.133 0 .223-.134.223-.268l.044-.268c-.044 0-.044 0 0 0zm0-3.839c.134 0 .224.045.313.134.09.09.09.179.09.268v1.473c0 .09-.045.223-.09.268-.134.09-.223.134-.313.134h-.044v-.268c0-.134-.09-.268-.268-.268h-.09c-.134-.044-.223.09-.223.223v.313h-.045a.406.406 0 0 1-.312-.134.634.634 0 0 1-.09-.268v-1.473c0-.09.045-.179.09-.268a.406.406 0 0 1 .312-.134h.045v.268c0 .134.134.268.268.268h.09c.133 0 .223-.134.223-.268l.044-.268c-.044 0-.044 0 0 0zm-.044-1.652V9.24a.305.305 0 0 0-.313-.312c-.134 0-.268.133-.268.312v.223c-.179-.044-.313-.178-.402-.312a.957.957 0 0 1-.179-.536c0-.491.402-.848.849-.848.357 0 .67.223.804.536v.044h-.223c-.179 0-.268.09-.313.268v.045c0 .178.134.268.313.268h.268c-.09.267-.313.446-.536.535zm5.047 8.125H5.092v-1.964h1.876v1.964zm0-3.214H5.092v-2.009h1.876v2.009zm0-3.214H5.092V9.15h1.876v2.01zm3.127 6.428H8.219v-1.964h1.876v1.964zm0-3.214H8.219v-2.009h1.876v2.009zm0-3.214H8.219V9.15h1.876v2.01zm3.126 6.428h-1.876v-1.964h1.876v1.964zm0-3.214h-1.876v-2.009h1.876v2.009zm0-3.214h-1.876V9.15h1.876v2.01zm3.127 6.428h-1.876v-1.964h1.876v1.964zm0-3.214h-1.876v-2.009h1.876v2.009zm0-3.214h-1.876V9.15h1.876v2.01zm-1.876-3.393h-9.38v-.491c.625-.179 1.25-.357 1.876-.491 1.206-.268 2.457-.357 3.752-.357s2.546.133 3.752.357c.625.134 1.25.312 1.876.49v.492h-1.876zm4.511 1.16h.268c.179 0 .313-.133.313-.267v-.045c0-.134-.134-.268-.313-.268h-.268v-.044a.882.882 0 0 1 .804-.536c.492 0 .849.402.849.848a.858.858 0 0 1-.179.536c-.089.134-.223.223-.402.312V9.24c0-.178-.134-.268-.268-.268-.178 0-.268.134-.268.268v.223c-.223-.089-.446-.268-.536-.535zm.492 4.465a.406.406 0 0 1-.313-.134c-.09-.09-.09-.179-.09-.268v-1.473c0-.09.045-.223.09-.268a.406.406 0 0 1 .313-.134h.044v.268c0 .134.09.268.224.268h.089c.134 0 .223-.134.268-.268v-.268h.045c.134 0 .223.045.312.134.045.09.09.179.09.268v1.473c0 .09-.045.179-.09.268a.406.406 0 0 1-.312.134H20.1v-.268c0-.134-.09-.268-.268-.268h-.09a.288.288 0 0 0-.267.268v.268zm0 3.84a.406.406 0 0 1-.313-.135c-.09-.09-.09-.178-.09-.268v-1.473c0-.09.045-.223.09-.268a.406.406 0 0 1 .313-.134h.044v.268c0 .134.09.268.224.268h.089c.134 0 .223-.134.268-.268v-.268h.045c.134 0 .223.045.312.134.045.09.09.179.09.268v1.473c0 .09-.045.179-.09.268a.406.406 0 0 1-.312.134H20.1v-.268c0-.134-.09-.268-.268-.268h-.09a.288.288 0 0 0-.267.268v.268zm0 3.883a.406.406 0 0 1-.313-.134c-.09-.09-.09-.178-.09-.268V19.24c0-.09.045-.223.09-.268a.406.406 0 0 1 .313-.134h.044v.268c0 .134.09.268.224.268h.089c.134 0 .223-.134.268-.268v-.268h.045c.134 0 .223.045.312.134.045.09.09.179.09.268v1.473c0 .09-.045.179-.09.268a.406.406 0 0 1-.312.134H20.1v-.268c0-.134-.09-.268-.268-.268h-.09a.288.288 0 0 0-.267.268v.268zm.357 3.304a.848.848 0 0 1-.849-.849c0-.357.224-.714.581-.803v.223c0 .134.134.268.268.268a.288.288 0 0 0 .268-.268v-.223c.357.134.58.446.58.803a.878.878 0 0 1-.848.849z" fill="#FFF"/></svg>
