<?xml version="1.0" encoding="utf-8"?>
<!-- Generator: Adobe Illustrator 19.2.1, SVG Export Plug-In . SVG Version: 6.00 Build 0)  -->
<svg version="1.1" id="Layer_1" xmlns="http://www.w3.org/2000/svg" xmlns:xlink="http://www.w3.org/1999/xlink" x="0px" y="0px"
	 viewBox="0 0 300 56" style="enable-background:new 0 0 300 56;" xml:space="preserve">
<style type="text/css">
	.st0{fill:#FFFFFF;}
</style>
<path class="st0" d="M62.1,33.2c0-2.6-0.1-4.7-0.2-6.6h3.3l0.2,3.5h0.1c1.5-2.5,3.9-3.9,7.2-3.9c4.9,0,8.5,4.1,8.5,10.2
	c0,7.2-4.4,10.8-9.2,10.8c-2.7,0-5-1.2-6.2-3.2h-0.1v11h-3.6V33.2z M65.7,38.6c0,0.5,0.1,1,0.2,1.5c0.7,2.5,2.9,4.3,5.5,4.3
	c3.9,0,6.1-3.2,6.1-7.8c0-4-2.1-7.5-6-7.5c-2.5,0-4.8,1.8-5.5,4.5c-0.1,0.5-0.3,1-0.3,1.5C65.7,35.1,65.7,38.6,65.7,38.6z"/>
<path class="st0" d="M100,42c0,1.7,0.1,3.5,0.3,4.8H97l-0.3-2.5h-0.1c-1.1,1.6-3.3,3-6.2,3c-4.1,0-6.2-2.9-6.2-5.8
	c0-4.9,4.3-7.5,12.1-7.5v-0.4c0-1.7-0.5-4.7-4.6-4.7c-1.9,0-3.8,0.6-5.2,1.5L85.7,28c1.7-1.1,4.1-1.8,6.6-1.8c6.2,0,7.7,4.2,7.7,8.2
	C100,34.4,100,42,100,42z M96.4,36.5c-4-0.1-8.5,0.6-8.5,4.5c0,2.4,1.6,3.5,3.5,3.5c2.6,0,4.3-1.7,4.9-3.4c0.1-0.4,0.2-0.8,0.2-1.2
	L96.4,36.5L96.4,36.5z"/>
<path class="st0" d="M105.9,32.9c0-2.4,0-4.4-0.2-6.3h3.2l0.1,4h0.2c0.9-2.7,3.1-4.4,5.6-4.4c0.4,0,0.7,0,1,0.1v3.5
	c-0.4-0.1-0.8-0.1-1.3-0.1c-2.6,0-4.4,2-4.9,4.7c-0.1,0.5-0.2,1.1-0.2,1.7v10.7h-3.6V32.9H105.9z"/>
<path class="st0" d="M119.7,17.2h3.7v29.6h-3.7V17.2z"/>
<path class="st0" d="M133.6,21c0,1.3-0.9,2.2-2.3,2.2c-1.3,0-2.2-1-2.2-2.2c0-1.3,1-2.3,2.3-2.3C132.7,18.7,133.6,19.7,133.6,21z
	 M129.5,46.8V26.6h3.7v20.2C133.2,46.8,129.5,46.8,129.5,46.8z"/>
<path class="st0" d="M153.4,42c0,1.7,0.1,3.5,0.3,4.8h-3.3l-0.3-2.5H150c-1.1,1.6-3.3,3-6.2,3c-4.1,0-6.2-2.9-6.2-5.8
	c0-4.9,4.3-7.5,12.1-7.5v-0.4c0-1.7-0.5-4.7-4.6-4.7c-1.9,0-3.8,0.6-5.2,1.5l-0.8-2.4c1.7-1.1,4.1-1.8,6.6-1.8
	c6.2,0,7.7,4.2,7.7,8.2L153.4,42L153.4,42z M149.9,36.5c-4-0.1-8.5,0.6-8.5,4.5c0,2.4,1.6,3.5,3.5,3.5c2.6,0,4.3-1.7,4.9-3.4
	c0.1-0.4,0.2-0.8,0.2-1.2L149.9,36.5L149.9,36.5z"/>
<path class="st0" d="M159.3,32.1c0-2.1,0-3.8-0.2-5.5h3.2l0.2,3.2h0.1c1.1-1.9,3-3.7,6.3-3.7c2.7,0,4.8,1.7,5.7,4h0.1
	c0.6-1.1,1.4-2,2.2-2.6c1.2-0.9,2.5-1.4,4.5-1.4c2.7,0,6.6,1.7,6.6,8.7v11.9h-3.6V35.4c0-3.9-1.4-6.2-4.4-6.2
	c-2.1,0-3.7,1.5-4.3,3.3c-0.2,0.5-0.3,1.2-0.3,1.8v12.5h-3.6V34.7c0-3.2-1.4-5.5-4.2-5.5c-2.3,0-4,1.8-4.5,3.7
	c-0.2,0.5-0.3,1.2-0.3,1.8v12.2h-3.6V32.1H159.3z"/>
<path class="st0" d="M196.1,37.4c0.1,5,3.2,7,6.9,7c2.6,0,4.2-0.5,5.6-1l0.6,2.6c-1.3,0.6-3.5,1.3-6.7,1.3c-6.2,0-9.9-4.1-9.9-10.2
	s3.6-10.9,9.5-10.9c6.6,0,8.3,5.8,8.3,9.5c0,0.8-0.1,1.3-0.1,1.7C210.3,37.4,196.1,37.4,196.1,37.4z M206.8,34.8c0-2.3-1-6-5.1-6
	c-3.7,0-5.3,3.4-5.6,6H206.8z"/>
<path class="st0" d="M214.9,32.1c0-2.1,0-3.8-0.2-5.5h3.2l0.2,3.3h0.1c1-1.9,3.3-3.8,6.7-3.8c2.8,0,7.1,1.7,7.1,8.6v12h-3.7V35.2
	c0-3.2-1.2-6-4.7-6c-2.4,0-4.3,1.7-4.9,3.7c-0.2,0.5-0.2,1.1-0.2,1.7v12.1h-3.7L214.9,32.1L214.9,32.1z"/>
<path class="st0" d="M242.3,21.8v4.8h5.2v2.8h-5.2v10.9c0,2.5,0.7,3.9,2.7,3.9c1,0,1.6-0.1,2.1-0.3l0.2,2.7
	c-0.7,0.3-1.8,0.5-3.2,0.5c-1.7,0-3.1-0.6-4-1.6c-1-1.1-1.4-2.9-1.4-5.2v-11h-3.1v-2.8h3.1v-3.7L242.3,21.8z"/>
<path class="st0" d="M253.1,47.3c-1.4,0-2.4-1.1-2.4-2.6s1-2.6,2.5-2.6s2.5,1.1,2.5,2.6C255.6,46.1,254.6,47.3,253.1,47.3
	L253.1,47.3z"/>
<path class="st0" d="M277,41.3c0,2.1,0,3.9,0.2,5.5H274l-0.2-3.3h-0.1c-1,1.6-3.1,3.7-6.7,3.7c-3.2,0-7-1.7-7-8.8V26.6h3.7v11.2
	c0,3.8,1.2,6.4,4.5,6.4c2.5,0,4.2-1.7,4.8-3.3c0.2-0.5,0.3-1.2,0.3-1.9V26.6h3.7L277,41.3L277,41.3z"/>
<path class="st0" d="M286.7,35.9L286.7,35.9c0.6-0.7,1.3-1.6,1.9-2.3l5.9-7h4.4l-7.8,8.3l8.9,11.9h-4.5l-7-9.7l-1.9,2.1v7.6H283
	V17.2h3.6v18.7H286.7z"/>
<path class="st0" d="M45,49.6v-1h0.1c1.2,0,2.2-1,2.2-2.2v-3.3c0-1.2-1-2.2-2.2-2.2H45v0v-0.9h0.1c1.2,0,2.2-1,2.2-2.2v-3.3
	c0-1.2-1-2.2-2.2-2.2H45v0v-0.9h0.1c1.2,0,2.2-1,2.2-2.2v-3.3c0-1.2-1-2.2-2.2-2.2H45v-1c0.8-0.2,1.5-0.7,2-1.3
	c0.4-0.5,0.6-1.2,0.6-1.8c0-1.8-1.4-3.2-3.2-3.2c-1.3,0-2.5,0.8-3,2c-0.1,0.2-0.2,0.4-0.2,0.6h-1.6v-1.4v0l0,0l1.5-2.5l5.5-9.5
	c0,0-1.1-0.6-1.9-1c-0.4-0.2-0.8-0.6-1.1-0.9c0,0-0.1-0.1-0.1-0.1c-0.1-0.1-0.2-0.1-0.4-0.1c-0.4,0-0.7,0.3-0.7,0.7
	c0.2,0.2,0.4,0.5,0.6,0.8c0.4,0.5,0.7,1.1,0.8,1.9C44,7.8,43.5,8.7,43,8.9c-0.5,0.2-1.6-0.3-2.1-1.3c-0.4-1-0.2-2.5-0.9-2.4
	c-0.7,0.1-0.1,1.9-0.5,3.2c-0.4,1.3-1.3,2.1-1,2.4c0.3,0.3,0.8-0.3,1.3-0.6c0.5-0.3,1.3-1,2-0.3c0.6,0.6,0.2,1.7-1.7,2.8
	c-1.1,0.6-2.3,1.1-3.2,1.2c-0.7,0.1-1.3,0-1.7-0.4c-0.4-0.4-0.6-0.9-0.6-1.3c0,0,0.1-0.1,0.1-0.1c0.2-0.2,0.4-0.5,0.5-0.9
	c0.1-0.5,0-1.1-0.2-1.5c0.3-0.5,0.7-1.3,1.5-1.4c1.3-0.2,1.9,1.1,1.9,1.1s1.2-2.1,0.3-2.9c-0.6-0.6-2.5,0.4-3.2,0.8
	c0.1-0.3,0.2-0.7,0.3-1c0.4-1.5,0.3-3.1-0.2-4.4c-1.1,1-1.9,2.3-2.3,3.8c-0.1,0.2-0.1,0.5-0.1,0.7c-0.5-0.7-1.5-2.2-2.3-2
	c-1.1,0.3-1.1,2.6-1.1,2.6s1.1-0.8,2,0c0.7,0.6,0.7,1.8,0.6,2.2c-0.5,0.2-0.9,0.7-1,1.3c-0.1,0.4-0.1,0.7,0,1c0,0,0,0,0,0.1
	c-0.6,0.5-1.7,1.1-2.9,1.1c-0.8,0-1.4-0.3-1.9-0.8c-0.6-0.6-1-1.5-1.3-2.5c0,0,0-0.1,0-0.1c-0.3-1.2-0.4-3-0.4-3s0.8-0.3,1.8,0.4
	c0,0,0.1,0,0.1,0.1c1.2,0.9,1.2,2,1.8,2c0.5,0,0.4-1.7,0.5-2.9c0.1-1.6,0.5-2.5,0.5-2.5c0.1-0.1,0-0.4-0.2-0.4
	C29.1,2.6,29,2.9,29,2.9S29,3.7,27.5,4.4c-0.2,0.1-0.3,0.1-0.5,0.2c-0.9,0.2-1.7-0.1-1.7-0.1S24.9,3.3,26,2.1
	c0.1-0.1,0.3-0.3,0.5-0.4c0.3-0.2,0.7-0.4,1.1-0.5C28,1.1,28.4,1,28.7,1c0-0.1,0-0.2,0-0.3c0-0.4-0.3-0.6-0.6-0.7
	c-0.2,0-0.4,0.1-0.6,0.1c-0.6,0.1-1.2,0.2-1.7,0.3c-0.6,0.1-1.2,0.1-1.9,0.1c-0.6,0-1.3,0-1.9-0.1c-0.6-0.1-1.2-0.2-1.7-0.3
	C20.2,0.1,20,0,19.8,0c-0.3,0.1-0.6,0.4-0.6,0.7c0,0.1,0,0.2,0,0.3c0.3,0,0.7,0.1,1.2,0.3c0.4,0.1,0.7,0.3,1.1,0.5
	c0.2,0.1,0.3,0.2,0.5,0.4c1.2,1.2,0.8,2.4,0.8,2.4S21.9,4.8,21,4.6c-0.2,0-0.3-0.1-0.5-0.2c-1.5-0.7-1.6-1.5-1.6-1.5
	s-0.1-0.3-0.4-0.2c-0.2,0.1-0.2,0.3-0.2,0.4c0,0,0.4,0.8,0.5,2.5c0.1,1.2,0,2.9,0.5,2.9c0.6,0,0.6-1.1,1.8-2c0,0,0.1,0,0.1-0.1
	C22.2,5.8,23.1,6,23.1,6S23,7.9,22.6,9c0,0,0,0.1,0,0.1c-0.3,1-0.7,1.9-1.3,2.5c-0.5,0.5-1.1,0.8-1.9,0.8c-1.2,0-2.2-0.6-2.9-1.1
	c0,0,0,0,0-0.1c0.1-0.3,0.1-0.7,0-1c-0.1-0.6-0.5-1-1-1.3c-0.1-0.5-0.1-1.6,0.6-2.2c1-0.8,2,0,2,0s0-2.3-1.1-2.6
	c-0.7-0.2-1.8,1.3-2.3,2c0-0.2-0.1-0.5-0.1-0.7c-0.4-1.5-1.2-2.8-2.3-3.8c-0.5,1.4-0.6,2.9-0.2,4.4c0.1,0.3,0.2,0.7,0.3,1
	C11.8,6.8,10,5.9,9.4,6.4C8.5,7.2,9.7,9.3,9.7,9.3s0.6-1.3,1.9-1.1c0.8,0.1,1.3,0.9,1.5,1.4c-0.3,0.4-0.4,1-0.2,1.5
	c0.1,0.4,0.3,0.7,0.5,0.9c0,0,0.1,0.1,0.1,0.1c-0.1,0.4-0.3,0.9-0.6,1.3c-0.4,0.4-1,0.5-1.7,0.4c-1-0.1-2.1-0.6-3.2-1.2
	C6,11.6,5.6,10.5,6.2,9.9c0.7-0.6,1.5,0,2,0.3c0.5,0.3,1,0.8,1.3,0.6c0.3-0.3-0.6-1.1-1-2.4C8,7.1,8.7,5.3,8,5.2
	C7.3,5.1,7.5,6.6,7.1,7.6C6.7,8.6,5.6,9,5,8.9c-0.5-0.2-1.1-1-0.9-2.4C4.3,5.8,4.6,5.2,5,4.6c0.2-0.3,0.4-0.5,0.6-0.8
	c0-0.4-0.3-0.7-0.7-0.7c-0.1,0-0.3,0-0.4,0.1c-0.1,0-0.1,0.1-0.1,0.1C4,3.7,3.7,4.1,3.2,4.3c-0.8,0.5-1.9,1-1.9,1l5.5,9.5l1.5,2.5
	l0,0l0,0v1.3H6.8c0-0.2-0.1-0.4-0.2-0.6c-0.5-1.2-1.6-2-3-2c-1.8,0-3.2,1.4-3.2,3.2c0,0.7,0.2,1.3,0.6,1.8c0.5,0.7,1.2,1.2,2,1.3v1
	H2.9c-1.2,0-2.2,1-2.2,2.2v3.3c0,1.2,1,2.2,2.2,2.2H3v0.9v0H2.9c-1.2,0-2.2,1-2.2,2.2v3.3c0,1.2,1,2.2,2.2,2.2H3v0.9v0H2.9
	c-1.2,0-2.2,1-2.2,2.2v3.3c0,1.2,1,2.2,2.2,2.2H3v1c-1.5,0.3-2.6,1.6-2.6,3.2c0,1.8,1.4,3.2,3.2,3.2s3.2-1.4,3.2-3.2
	c0-1.6-1.1-2.9-2.6-3.2v-1h0.1c1.2,0,2.2-1,2.2-2.2c0,0,0-0.1,0-0.1v-3.1c0,0,0-0.1,0-0.1c0-1.2-1-2.2-2.2-2.2v0h0H4.3v0v-0.9h0.1
	c1.2,0,2.2-1,2.2-2.2c0,0,0-0.1,0-0.1v-3.1c0,0,0-0.1,0-0.1c0-1.2-1-2.2-2.2-2.2v0h0H4.3v0v-0.9h0.1c1.2,0,2.2-1,2.2-2.2
	c0,0,0-0.1,0-0.1v-3.1c0,0,0-0.1,0-0.1c0-1.2-1-2.2-2.2-2.2v0h0H4.3v-1c1.3-0.3,2.3-1.3,2.5-2.5h1.6v0.5V25v2.7v4.5V35v4.5v2.7v4.5
	v6.4l1.5,0l1.5-3.6l1.2-2.8l-1.2,0v-4.5l4.2,0v4.5h-1.2l1.2,2.9l1.4,3.3l1.4-3.4l1.2-2.8h-1.2v-4.5l4.2,0v4.5h-1.2l1.2,2.9l1.4,3.3
	l1.4-3.4l1.2-2.9h-1.2v-4.5l4.2,0v4.5h-1.2l1.2,2.9l1.4,3.3l1.4-3.4l1.2-2.8h-1.2v-4.5l4.2,0v4.5h-1.2l1.2,2.9l1.5,3.5l1.5,0v-6.4
	v-4.5v-2.7V35v-2.7v-4.5V25v-4.5V20h1.6c0.3,1.3,1.3,2.3,2.5,2.5v1h-0.1h0v0c-1.2,0-2.2,1-2.2,2.2c0,0,0,0.1,0,0.1V29
	c0,0,0,0.1,0,0.1c0,1.2,1,2.2,2.2,2.2h0.1v0.9v0h-0.1h0v0c-1.2,0-2.2,1-2.2,2.2c0,0,0,0.1,0,0.1v3.1c0,0,0,0.1,0,0.1
	c0,1.2,1,2.2,2.2,2.2h0.1v0.9v0h-0.1h0v0c-1.2,0-2.2,1-2.2,2.2c0,0,0,0.1,0,0.1v3.1c0,0,0,0.1,0,0.1c0,1.2,1,2.2,2.2,2.2h0.1v1
	c-1.5,0.3-2.6,1.6-2.6,3.2c0,1.8,1.4,3.2,3.2,3.2c1.8,0,3.2-1.4,3.2-3.2C47.6,51.2,46.5,49.9,45,49.6z M5.6,52.8
	c0,1.1-0.9,1.9-1.9,1.9c-1.1,0-1.9-0.9-1.9-1.9c0-0.8,0.5-1.6,1.3-1.8v0.5v0h0c0,0.3,0.3,0.6,0.6,0.6c0.3,0,0.6-0.3,0.6-0.6h0v0
	v-0.5C5,51.2,5.6,51.9,5.6,52.8z M4.4,42.2c0.3,0,0.5,0.1,0.7,0.3c0.2,0.2,0.2,0.4,0.2,0.6h0v1.3v0.7v1.3h0c0,0.2-0.1,0.5-0.2,0.6
	c-0.2,0.2-0.4,0.3-0.7,0.3c0,0-0.1,0-0.1,0v0v-0.6c0,0,0,0,0,0c0-0.3-0.2-0.6-0.6-0.6c0,0-0.1,0-0.1,0c0,0-0.1,0-0.1,0
	c-0.3,0-0.6,0.3-0.6,0.6h0v0.6v0c0,0,0,0-0.1,0c-0.3,0-0.5-0.1-0.7-0.3C2.1,46.8,2,46.6,2,46.4v-1.3v-0.7v-1.3
	c0-0.2,0.1-0.4,0.2-0.6c0.2-0.2,0.4-0.3,0.7-0.3c0,0,0,0,0.1,0v0.6c0,0,0,0,0,0c0,0.3,0.3,0.6,0.6,0.6c0,0,0.1,0,0.1,0
	c0,0,0.1,0,0.1,0c0.3,0,0.5-0.3,0.5-0.6c0,0,0,0,0,0L4.4,42.2C4.3,42.2,4.3,42.2,4.4,42.2z M4.4,33.5c0.3,0,0.5,0.1,0.7,0.3
	c0.2,0.2,0.2,0.4,0.2,0.6h0v1.3v0.7v1.3h0c0,0.2-0.1,0.5-0.2,0.6c-0.2,0.2-0.4,0.3-0.7,0.3c0,0-0.1,0-0.1,0v0V38c0,0,0,0,0,0
	c0-0.3-0.2-0.6-0.6-0.6c0,0-0.1,0-0.1,0c0,0-0.1,0-0.1,0C3.2,37.4,3,37.7,3,38h0v0.6v0c0,0,0,0-0.1,0c-0.3,0-0.5-0.1-0.7-0.3
	C2.1,38.2,2,38,2,37.7v-1.3v-0.7v-1.3c0-0.2,0.1-0.4,0.2-0.6c0.2-0.2,0.4-0.3,0.7-0.3c0,0,0,0,0.1,0v0.6c0,0,0,0,0,0
	c0,0.3,0.3,0.6,0.6,0.6c0,0,0.1,0,0.1,0c0,0,0.1,0,0.1,0c0.3,0,0.5-0.3,0.5-0.6c0,0,0,0,0,0L4.4,33.5C4.3,33.5,4.3,33.5,4.4,33.5z
	 M4.4,24.9c0.3,0,0.5,0.1,0.7,0.3c0.2,0.2,0.2,0.4,0.2,0.6h0v1.3v0.7v1.3h0c0,0.2-0.1,0.5-0.2,0.6C4.8,29.9,4.6,30,4.4,30
	c0,0-0.1,0-0.1,0v-0.6c0,0,0,0,0,0c0-0.3-0.2-0.6-0.6-0.6c0,0-0.1,0-0.1,0c0,0-0.1,0-0.1,0C3.2,28.7,3,29,3,29.3h0V30c0,0,0,0-0.1,0
	c-0.3,0-0.5-0.1-0.7-0.3C2.1,29.5,2,29.3,2,29.1v-1.3v-0.7v-1.3c0-0.2,0.1-0.4,0.2-0.6c0.2-0.2,0.4-0.3,0.7-0.3c0,0,0,0,0.1,0v0.6v0
	h0c0,0.3,0.3,0.6,0.6,0.6c0,0,0.1,0,0.1,0c0,0,0.1,0,0.1,0c0.3,0,0.5-0.3,0.5-0.6h0v0L4.4,24.9C4.3,24.9,4.3,24.9,4.4,24.9z
	 M4.3,21.2v-0.5c0,0,0,0,0,0C4.3,20.3,4,20,3.6,20C3.3,20,3,20.3,3,20.7h0v0.5c-0.4-0.1-0.7-0.4-0.9-0.7c-0.2-0.3-0.4-0.7-0.4-1.2
	c0-1.1,0.9-1.9,1.9-1.9c0.8,0,1.5,0.5,1.8,1.2c0,0,0,0,0,0.1H5.3H4.9c0,0,0,0,0,0c-0.4,0-0.6,0.2-0.7,0.6c0,0,0,0,0,0.1
	c0,0.4,0.3,0.6,0.7,0.6v0h0.6C5.3,20.6,4.8,21,4.3,21.2z M15.6,39.4l-4.2,0V35l4.2,0V39.4z M15.6,32.2l-4.2,0v-4.5l4.2,0V32.2z
	 M15.6,25l-4.2,0v-4.5l4.2,0V25z M22.6,39.4l-4.2,0V35l4.2,0V39.4z M22.6,32.2l-4.2,0v-4.5l4.2,0V32.2z M22.6,25l-4.2,0v-4.5l4.2,0
	V25z M29.6,39.4l-4.2,0V35l4.2,0V39.4z M29.6,32.2l-4.2,0v-4.5l4.2,0V32.2z M29.6,25l-4.2,0v-4.5l4.2,0V25z M36.6,39.4l-4.2,0V35
	l4.2,0V39.4z M36.6,32.2l-4.2,0v-4.5l4.2,0V32.2z M36.6,25l-4.2,0v-4.5l4.2,0V25z M32.4,17.4l-2.8,0l-4.2,0l-2.8,0l-4.2,0l-2.8,0
	l-4.2,0v-1.1c1.4-0.4,2.8-0.8,4.2-1.1c2.7-0.6,5.5-0.8,8.4-0.8c2.9,0,5.7,0.3,8.4,0.8c1.4,0.3,2.8,0.7,4.2,1.1v1.1L32.4,17.4z
	 M42.5,20h0.6v0c0.4,0,0.7-0.3,0.7-0.6c0,0,0,0,0-0.1c0-0.3-0.3-0.6-0.7-0.6c0,0,0,0,0,0h-0.4h-0.2c0,0,0,0,0-0.1
	c0.3-0.7,1-1.2,1.8-1.2c1.1,0,1.9,0.9,1.9,1.9c0,0.4-0.1,0.8-0.4,1.2c-0.2,0.3-0.5,0.5-0.9,0.7v-0.5h0c0-0.4-0.3-0.6-0.6-0.6
	c-0.4,0-0.6,0.3-0.6,0.6c0,0,0,0,0,0v0.5C43.2,21,42.7,20.6,42.5,20z M43.6,30c-0.3,0-0.5-0.1-0.7-0.3c-0.2-0.2-0.2-0.4-0.2-0.6h0
	v-1.3v-0.7v-1.3h0c0-0.2,0.1-0.5,0.2-0.6c0.2-0.2,0.4-0.3,0.7-0.3c0,0,0.1,0,0.1,0v0.6v0h0c0,0.3,0.2,0.6,0.5,0.6c0,0,0.1,0,0.1,0
	c0,0,0.1,0,0.1,0c0.3,0,0.5-0.3,0.6-0.6h0v0v-0.6c0,0,0,0,0.1,0c0.3,0,0.5,0.1,0.7,0.3c0.1,0.2,0.2,0.4,0.2,0.6v1.3v0.7v1.3
	c0,0.2-0.1,0.4-0.2,0.6c-0.2,0.2-0.4,0.3-0.7,0.3c0,0,0,0-0.1,0v-0.6h0c0-0.3-0.2-0.6-0.6-0.6c0,0-0.1,0-0.1,0c0,0-0.1,0-0.1,0
	c-0.3,0-0.6,0.3-0.6,0.6c0,0,0,0,0,0L43.6,30C43.7,30,43.7,30,43.6,30z M43.6,38.6c-0.3,0-0.5-0.1-0.7-0.3c-0.2-0.2-0.2-0.4-0.2-0.6
	h0v-1.3v-0.7v-1.3h0c0-0.2,0.1-0.5,0.2-0.6c0.2-0.2,0.4-0.3,0.7-0.3c0,0,0.1,0,0.1,0v0.6c0,0,0,0,0,0c0,0.3,0.2,0.6,0.5,0.6
	c0,0,0.1,0,0.1,0c0,0,0.1,0,0.1,0c0.3,0,0.5-0.3,0.6-0.6c0,0,0,0,0,0v-0.6c0,0,0,0,0.1,0c0.3,0,0.5,0.1,0.7,0.3
	c0.1,0.2,0.2,0.4,0.2,0.6v1.3v0.7v1.3c0,0.2-0.1,0.4-0.2,0.6c-0.2,0.2-0.4,0.3-0.7,0.3c0,0,0,0-0.1,0v0V38h0c0-0.3-0.2-0.6-0.6-0.6
	c0,0-0.1,0-0.1,0c0,0-0.1,0-0.1,0c-0.3,0-0.6,0.3-0.6,0.6c0,0,0,0,0,0L43.6,38.6L43.6,38.6C43.7,38.6,43.7,38.6,43.6,38.6z
	 M43.6,47.3c-0.3,0-0.5-0.1-0.7-0.3c-0.2-0.2-0.2-0.4-0.2-0.6h0v-1.3v-0.7v-1.3h0c0-0.2,0.1-0.5,0.2-0.6c0.2-0.2,0.4-0.3,0.7-0.3
	c0,0,0.1,0,0.1,0v0.6c0,0,0,0,0,0c0,0.3,0.2,0.6,0.5,0.6c0,0,0.1,0,0.1,0c0,0,0.1,0,0.1,0c0.3,0,0.5-0.3,0.6-0.6c0,0,0,0,0,0v-0.6
	c0,0,0,0,0.1,0c0.3,0,0.5,0.1,0.7,0.3c0.1,0.2,0.2,0.4,0.2,0.6v1.3v0.7v1.3c0,0.2-0.1,0.4-0.2,0.6c-0.2,0.2-0.4,0.3-0.7,0.3
	c0,0,0,0-0.1,0v0v-0.6h0c0-0.3-0.2-0.6-0.6-0.6c0,0-0.1,0-0.1,0c0,0-0.1,0-0.1,0c-0.3,0-0.6,0.3-0.6,0.6c0,0,0,0,0,0L43.6,47.3
	L43.6,47.3C43.7,47.3,43.7,47.3,43.6,47.3z M44.4,54.7c-1.1,0-1.9-0.9-1.9-1.9c0-0.8,0.5-1.6,1.3-1.8v0.5v0h0c0,0.3,0.3,0.6,0.6,0.6
	s0.6-0.3,0.6-0.6h0v0v-0.5c0.8,0.3,1.3,1,1.3,1.8C46.3,53.8,45.4,54.7,44.4,54.7z"/>
</svg>
