<svg width="48" height="56" viewBox="0 0 48 56" xmlns="http://www.w3.org/2000/svg"><title>parliament-uk-portcullis-black</title><path d="M45 49.6v-1h.1c1.2 0 2.2-1 2.2-2.2v-3.3c0-1.2-1-2.2-2.2-2.2H45V40h.1c1.2 0 2.2-1 2.2-2.2v-3.3c0-1.2-1-2.2-2.2-2.2H45v-.9h.1c1.2 0 2.2-1 2.2-2.2v-3.3c0-1.2-1-2.2-2.2-2.2H45v-1c.8-.2 1.5-.7 2-1.3.4-.5.6-1.2.6-1.8 0-1.8-1.4-3.2-3.2-3.2-1.3 0-2.5.8-3 2-.1.2-.2.4-.2.6h-1.6v-1.4l1.5-2.5 5.5-9.5s-1.1-.6-1.9-1c-.4-.2-.8-.6-1.1-.9l-.1-.1c-.1-.1-.2-.1-.4-.1-.4 0-.7.3-.7.7.2.2.4.5.6.8.4.5.7 1.1.8 1.9.2.9-.3 1.8-.8 2-.5.2-1.6-.3-2.1-1.3-.4-1-.2-2.5-.9-2.4-.7.1-.1 1.9-.5 3.2-.4 1.3-1.3 2.1-1 2.4.3.3.8-.3 1.3-.6s1.3-1 2-.3c.6.6.2 1.7-1.7 2.8-1.1.6-2.3 1.1-3.2 1.2-.7.1-1.3 0-1.7-.4-.4-.4-.6-.9-.6-1.3l.1-.1c.2-.2.4-.5.5-.9.1-.5 0-1.1-.2-1.5.3-.5.7-1.3 1.5-1.4 1.3-.2 1.9 1.1 1.9 1.1s1.2-2.1.3-2.9c-.6-.6-2.5.4-3.2.8.1-.3.2-.7.3-1 .4-1.5.3-3.1-.2-4.4-1.1 1-1.9 2.3-2.3 3.8-.1.2-.1.5-.1.7-.5-.7-1.5-2.2-2.3-2-1.1.3-1.1 2.6-1.1 2.6s1.1-.8 2 0c.7.6.7 1.8.6 2.2-.5.2-.9.7-1 1.3-.1.4-.1.7 0 1v.1c-.6.5-1.7 1.1-2.9 1.1-.8 0-1.4-.3-1.9-.8-.6-.6-1-1.5-1.3-2.5v-.1c-.3-1.2-.4-3-.4-3s.8-.3 1.8.4c0 0 .1 0 .1.1 1.2.9 1.2 2 1.8 2 .5 0 .4-1.7.5-2.9.1-1.6.5-2.5.5-2.5.1-.1 0-.4-.2-.4-.3-.4-.4-.1-.4-.1s0 .8-1.5 1.5c-.2.1-.3.1-.5.2-.9.2-1.7-.1-1.7-.1s-.4-1.2.7-2.4c.1-.1.3-.3.5-.4.3-.2.7-.4 1.1-.5.4-.1.8-.2 1.1-.2V.7c0-.4-.3-.6-.6-.7-.2 0-.4.1-.6.1-.6.1-1.2.2-1.7.3-.6.1-1.2.1-1.9.1-.6 0-1.3 0-1.9-.1-.6-.1-1.2-.2-1.7-.3-.1 0-.3-.1-.5-.1-.3.1-.6.4-.6.7V1c.3 0 .7.1 1.2.3.4.1.7.3 1.1.5.2.1.3.2.5.4 1.2 1.2.8 2.4.8 2.4s-.9.2-1.8 0c-.2 0-.3-.1-.5-.2-1.5-.7-1.6-1.5-1.6-1.5s-.1-.3-.4-.2c-.2.1-.2.3-.2.4 0 0 .4.8.5 2.5.1 1.2 0 2.9.5 2.9.6 0 .6-1.1 1.8-2 0 0 .1 0 .1-.1 1-.6 1.9-.4 1.9-.4s-.1 1.9-.5 3v.1c-.3 1-.7 1.9-1.3 2.5-.5.5-1.1.8-1.9.8-1.2 0-2.2-.6-2.9-1.1v-.1c.1-.3.1-.7 0-1-.1-.6-.5-1-1-1.3-.1-.5-.1-1.6.6-2.2 1-.8 2 0 2 0s0-2.3-1.1-2.6c-.7-.2-1.8 1.3-2.3 2 0-.2-.1-.5-.1-.7-.4-1.5-1.2-2.8-2.3-3.8-.5 1.4-.6 2.9-.2 4.4.1.3.2.7.3 1-.6-.2-2.4-1.1-3-.6-.9.8.3 2.9.3 2.9s.6-1.3 1.9-1.1c.8.1 1.3.9 1.5 1.4-.3.4-.4 1-.2 1.5.1.4.3.7.5.9l.1.1c-.1.4-.3.9-.6 1.3-.4.4-1 .5-1.7.4-1-.1-2.1-.6-3.2-1.2-2-1-2.4-2.1-1.8-2.7.7-.6 1.5 0 2 .3s1 .8 1.3.6c.3-.3-.6-1.1-1-2.4-.5-1.3.2-3.1-.5-3.2-.7-.1-.5 1.4-.9 2.4S5.6 9 5 8.9c-.5-.2-1.1-1-.9-2.4.2-.7.5-1.3.9-1.9.2-.3.4-.5.6-.8 0-.4-.3-.7-.7-.7-.1 0-.3 0-.4.1-.1 0-.1.1-.1.1-.4.4-.7.8-1.2 1-.8.5-1.9 1-1.9 1l5.5 9.5 1.5 2.5v1.3H6.8c0-.2-.1-.4-.2-.6-.5-1.2-1.6-2-3-2-1.8 0-3.2 1.4-3.2 3.2 0 .7.2 1.3.6 1.8.5.7 1.2 1.2 2 1.3v1h-.1c-1.2 0-2.2 1-2.2 2.2v3.3c0 1.2 1 2.2 2.2 2.2H3v.9h-.1c-1.2 0-2.2 1-2.2 2.2v3.3c0 1.2 1 2.2 2.2 2.2H3v.9h-.1c-1.2 0-2.2 1-2.2 2.2V46c0 1.2 1 2.2 2.2 2.2H3v1c-1.5.3-2.6 1.6-2.6 3.2 0 1.8 1.4 3.2 3.2 3.2 1.8 0 3.2-1.4 3.2-3.2 0-1.6-1.1-2.9-2.6-3.2v-1h.1c1.2 0 2.2-1 2.2-2.2v-3.3c0-1.2-1-2.2-2.2-2.2v-.9h.1c1.2 0 2.2-1 2.2-2.2v-3.3c0-1.2-1-2.2-2.2-2.2h-.1V31h.1c1.2 0 2.2-1 2.2-2.2v-3.3c0-1.2-1-2.2-2.2-2.2h-.1v-1c1.3-.3 2.3-1.3 2.5-2.5h1.6v33.3h1.5l1.5-3.6 1.2-2.8h-1.2v-4.5h4.2v4.5h-1.2l1.2 2.9 1.4 3.3 1.4-3.4 1.2-2.8h-1.2v-4.5h4.2v4.5h-1.2l1.2 2.9 1.4 3.3 1.4-3.4 1.2-2.9h-1.2v-4.5h4.2v4.5h-1.2l1.2 2.9 1.4 3.3 1.4-3.4 1.2-2.8h-1.2v-4.5h4.2v4.5h-1.2l1.2 2.9 1.5 3.5h1.5V20h1.6c.3 1.3 1.3 2.3 2.5 2.5v1h-.1c-1.2 0-2.2 1-2.2 2.2v3.4c0 1.2 1 2.2 2.2 2.2h.1v.9h-.1c-1.2 0-2.2 1-2.2 2.2v3.3c0 1.2 1 2.2 2.2 2.2h.1v.9h-.1c-1.2 0-2.2 1-2.2 2.2v3.3c0 1.2 1 2.2 2.2 2.2h.1v1c-1.5.3-2.6 1.6-2.6 3.2 0 1.8 1.4 3.2 3.2 3.2 1.8 0 3.2-1.4 3.2-3.2.1-1.5-1-2.8-2.5-3.1zM5.6 52.8c0 1.1-.9 1.9-1.9 1.9-1.1 0-1.9-.9-1.9-1.9 0-.8.5-1.6 1.3-1.8v.5c0 .3.3.6.6.6s.6-.3.6-.6V51c.7.2 1.3.9 1.3 1.8zM4.4 42.2c.3 0 .5.1.7.3.2.2.2.4.2.6v3.3c0 .2-.1.5-.2.6-.2.2-.4.3-.7.3h-.1v-.6c0-.3-.2-.6-.6-.6h-.2c-.3 0-.6.3-.6.6v.6h-.1c-.3 0-.5-.1-.7-.3 0-.2-.1-.4-.1-.6v-3.3c0-.2.1-.4.2-.6.2-.2.4-.3.7-.3H3v.6c0 .3.3.6.6.6h.2c.3 0 .5-.3.5-.6l.1-.6c-.1 0-.1 0 0 0zm0-8.7c.3 0 .5.1.7.3.2.2.2.4.2.6v3.3c0 .2-.1.5-.2.6-.2.2-.4.3-.7.3h-.1V38c0-.3-.2-.6-.6-.6h-.2c-.3 0-.5.3-.5.6v.6h-.1c-.3 0-.5-.1-.7-.3-.1-.1-.2-.3-.2-.6v-3.3c0-.2.1-.4.2-.6.2-.2.4-.3.7-.3H3v.6c0 .3.3.6.6.6h.2c.3 0 .5-.3.5-.6l.1-.6c-.1 0-.1 0 0 0zm0-8.6c.3 0 .5.1.7.3.2.2.2.4.2.6v3.3c0 .2-.1.5-.2.6-.3.2-.5.3-.7.3h-.1v-.6c0-.3-.2-.6-.6-.6h-.2c-.3-.1-.5.2-.5.5v.7h-.1c-.3 0-.5-.1-.7-.3-.1-.2-.2-.4-.2-.6v-3.3c0-.2.1-.4.2-.6.2-.2.4-.3.7-.3H3v.6c0 .3.3.6.6.6h.2c.3 0 .5-.3.5-.6l.1-.6c-.1 0-.1 0 0 0zm-.1-3.7v-.5c0-.4-.3-.7-.7-.7-.3 0-.6.3-.6.7v.5c-.4-.1-.7-.4-.9-.7-.2-.3-.4-.7-.4-1.2 0-1.1.9-1.9 1.9-1.9.8 0 1.5.5 1.8 1.2v.1h-.5c-.4 0-.6.2-.7.6v.1c0 .4.3.6.7.6h.6c-.2.6-.7 1-1.2 1.2zm11.3 18.2h-4.2V35h4.2v4.4zm0-7.2h-4.2v-4.5h4.2v4.5zm0-7.2h-4.2v-4.5h4.2V25zm7 14.4h-4.2V35h4.2v4.4zm0-7.2h-4.2v-4.5h4.2v4.5zm0-7.2h-4.2v-4.5h4.2V25zm7 14.4h-4.2V35h4.2v4.4zm0-7.2h-4.2v-4.5h4.2v4.5zm0-7.2h-4.2v-4.5h4.2V25zm7 14.4h-4.2V35h4.2v4.4zm0-7.2h-4.2v-4.5h4.2v4.5zm0-7.2h-4.2v-4.5h4.2V25zm-4.2-7.6h-21v-1.1c1.4-.4 2.8-.8 4.2-1.1 2.7-.6 5.5-.8 8.4-.8 2.9 0 5.7.3 8.4.8 1.4.3 2.8.7 4.2 1.1v1.1h-4.2zM42.5 20h.6c.4 0 .7-.3.7-.6v-.1c0-.3-.3-.6-.7-.6h-.6v-.1c.3-.7 1-1.2 1.8-1.2 1.1 0 1.9.9 1.9 1.9 0 .4-.1.8-.4 1.2-.2.3-.5.5-.9.7v-.5c0-.4-.3-.6-.6-.6-.4 0-.6.3-.6.6v.5c-.5-.2-1-.6-1.2-1.2zm1.1 10c-.3 0-.5-.1-.7-.3-.2-.2-.2-.4-.2-.6v-3.3c0-.2.1-.5.2-.6.2-.2.4-.3.7-.3h.1v.6c0 .3.2.6.5.6h.2c.3 0 .5-.3.6-.6v-.6h.1c.3 0 .5.1.7.3.1.2.2.4.2.6v3.3c0 .2-.1.4-.2.6-.2.2-.4.3-.7.3H45v-.6c0-.3-.2-.6-.6-.6h-.2c-.3 0-.6.3-.6.6v.6zm0 8.6c-.3 0-.5-.1-.7-.3-.2-.2-.2-.4-.2-.6v-3.3c0-.2.1-.5.2-.6.2-.2.4-.3.7-.3h.1v.6c0 .3.2.6.5.6h.2c.3 0 .5-.3.6-.6v-.6h.1c.3 0 .5.1.7.3.1.2.2.4.2.6v3.3c0 .2-.1.4-.2.6-.2.2-.4.3-.7.3H45V38c0-.3-.2-.6-.6-.6h-.2c-.3 0-.6.3-.6.6v.6zm0 8.7c-.3 0-.5-.1-.7-.3-.2-.2-.2-.4-.2-.6v-3.3c0-.2.1-.5.2-.6.2-.2.4-.3.7-.3h.1v.6c0 .3.2.6.5.6h.2c.3 0 .5-.3.6-.6v-.6h.1c.3 0 .5.1.7.3.1.2.2.4.2.6v3.3c0 .2-.1.4-.2.6-.2.2-.4.3-.7.3H45v-.6c0-.3-.2-.6-.6-.6h-.2c-.3 0-.6.3-.6.6v.6zm.8 7.4c-1.1 0-1.9-.9-1.9-1.9 0-.8.5-1.6 1.3-1.8v.5c0 .3.3.6.6.6s.6-.3.6-.6V51c.8.3 1.3 1 1.3 1.8 0 1-.9 1.9-1.9 1.9z" fill-rule="evenodd"/></svg>
