<svg width="268" height="50" viewBox="0 0 268 50" xmlns="http://www.w3.org/2000/svg"><title>parliament-uk--white</title><path d="M55.476 29.643c0-2.322-.09-4.197-.179-5.893h2.948l.179 3.125h.09c1.34-2.232 3.483-3.482 6.431-3.482 4.378 0 7.594 3.66 7.594 9.107 0 6.429-3.931 9.643-8.219 9.643-2.412 0-4.467-1.072-5.539-2.857h-.089v9.821h-3.216V29.643zm3.216 4.821c0 .447.09.893.179 1.34.625 2.232 2.59 3.839 4.913 3.839 3.484 0 5.45-2.857 5.45-6.964 0-3.572-1.877-6.697-5.36-6.697-2.234 0-4.289 1.607-4.914 4.018-.09.446-.268.893-.268 1.34v3.124zM89.333 37.5c0 1.518.09 3.125.268 4.286h-2.948l-.268-2.232h-.089c-.983 1.428-2.948 2.678-5.539 2.678-3.662 0-5.538-2.59-5.538-5.178 0-4.375 3.841-6.697 10.809-6.697V30c0-1.518-.447-4.196-4.11-4.196-1.697 0-3.394.535-4.645 1.339L76.56 25c1.518-.982 3.662-1.607 5.896-1.607 5.538 0 6.878 3.75 6.878 7.321V37.5zm-3.216-4.91c-3.573-.09-7.593.535-7.593 4.017 0 2.143 1.43 3.125 3.127 3.125a4.576 4.576 0 0 0 4.377-3.036c.09-.357.179-.714.179-1.071l-.09-3.036zm8.487-3.215c0-2.143 0-3.929-.179-5.625h2.859l.09 3.571h.178c.804-2.41 2.77-3.928 5.003-3.928.357 0 .625 0 .893.09v3.124c-.357-.09-.715-.09-1.161-.09-2.323 0-3.931 1.787-4.378 4.197-.089.447-.178.982-.178 1.518v9.554h-3.216V29.375h.089zm12.328-14.018h3.305v26.429h-3.305V15.357zm12.417 3.393c0 1.16-.804 1.964-2.054 1.964-1.162 0-1.966-.893-1.966-1.964 0-1.16.894-2.054 2.055-2.054s1.965.893 1.965 2.054zm-3.662 23.036V23.75h3.305v18.036h-3.305zm21.35-4.286c0 1.518.09 3.125.268 4.286h-2.948l-.268-2.232H134c-.983 1.428-2.948 2.678-5.539 2.678-3.662 0-5.538-2.59-5.538-5.178 0-4.375 3.841-6.697 10.809-6.697V30c0-1.518-.447-4.196-4.11-4.196-1.697 0-3.394.535-4.645 1.339L124.263 25c1.518-.982 3.662-1.607 5.896-1.607 5.538 0 6.878 3.75 6.878 7.321V37.5zm-3.126-4.91c-3.574-.09-7.594.535-7.594 4.017 0 2.143 1.43 3.125 3.127 3.125a4.576 4.576 0 0 0 4.377-3.036c.09-.357.179-.714.179-1.071l-.09-3.036zm8.397-3.93c0-1.874 0-3.392-.179-4.91h2.859l.179 2.857h.089c.983-1.696 2.68-3.303 5.628-3.303 2.412 0 4.288 1.517 5.092 3.571h.09c.535-.982 1.25-1.786 1.965-2.321 1.072-.804 2.233-1.25 4.02-1.25 2.412 0 5.896 1.517 5.896 7.767v10.625h-3.216V31.607c0-3.482-1.251-5.536-3.931-5.536-1.876 0-3.305 1.34-3.841 2.947-.179.446-.268 1.071-.268 1.607v11.16h-3.216V30.983c0-2.857-1.251-4.91-3.752-4.91-2.055 0-3.574 1.607-4.02 3.303-.179.446-.268 1.071-.268 1.607v10.893h-3.216V28.661h.089zm32.875 4.733c.089 4.464 2.858 6.25 6.164 6.25 2.322 0 3.752-.447 5.002-.893l.536 2.321c-1.161.536-3.126 1.161-5.985 1.161-5.539 0-8.844-3.66-8.844-9.107 0-5.446 3.216-9.732 8.487-9.732 5.896 0 7.414 5.178 7.414 8.482 0 .714-.089 1.16-.089 1.518h-12.685zm9.558-2.322c0-2.053-.893-5.357-4.556-5.357-3.305 0-4.734 3.036-5.002 5.357h9.558zm7.236-2.41c0-1.875 0-3.393-.178-4.911h2.858l.179 2.946h.09c.893-1.696 2.947-3.392 5.985-3.392 2.501 0 6.342 1.517 6.342 7.678v10.714h-3.305V31.43c0-2.858-1.072-5.358-4.199-5.358-2.144 0-3.841 1.518-4.377 3.304-.179.446-.179.982-.179 1.518v10.803h-3.305l.09-13.035zm24.478-9.197v4.286h4.645v2.5h-4.645v9.732c0 2.232.625 3.482 2.412 3.482.893 0 1.429-.089 1.876-.268l.178 2.411c-.625.268-1.608.447-2.858.447-1.519 0-2.77-.536-3.574-1.429-.893-.982-1.25-2.59-1.25-4.643v-9.821h-2.77v-2.5h2.77v-3.304l3.216-.893zm9.648 22.768c-1.251 0-2.144-.982-2.144-2.321 0-1.34.893-2.322 2.233-2.322s2.233.982 2.233 2.322c-.089 1.25-.982 2.321-2.322 2.321zm21.35-5.357c0 1.875 0 3.482.179 4.91h-2.859l-.178-2.946h-.09c-.893 1.429-2.769 3.304-5.985 3.304-2.859 0-6.253-1.518-6.253-7.857V23.75h3.305v10c0 3.393 1.072 5.714 4.02 5.714 2.233 0 3.752-1.518 4.288-2.946.179-.447.268-1.072.268-1.697V23.75h3.305v13.125zm8.666-4.821c.536-.625 1.161-1.429 1.697-2.054l5.27-6.25h3.931l-6.968 7.41L268 41.787h-4.02l-6.253-8.661L256.029 35v6.786h-3.216V15.357h3.216v16.697h.09zM40.2 44.286v-.893h.09a1.982 1.982 0 0 0 1.965-1.964v-2.947a1.982 1.982 0 0 0-1.966-1.964H40.2v-.804h.09a1.982 1.982 0 0 0 1.965-1.964v-2.946a1.982 1.982 0 0 0-1.966-1.965H40.2v-.803h.09a1.982 1.982 0 0 0 1.965-1.965v-2.946a1.982 1.982 0 0 0-1.966-1.964H40.2v-.893c.715-.179 1.34-.625 1.787-1.16.357-.447.536-1.072.536-1.608a2.821 2.821 0 0 0-2.859-2.857 2.926 2.926 0 0 0-2.68 1.786c-.09.178-.179.357-.179.535h-1.429v-1.25l1.34-2.232L41.629 5s-.982-.536-1.697-.893c-.357-.178-.715-.536-.983-.803l-.089-.09c-.09-.089-.179-.089-.357-.089a.61.61 0 0 0-.626.625c.179.179.358.446.536.714.358.447.626.982.715 1.697.179.803-.268 1.607-.715 1.785-.446.179-1.429-.267-1.876-1.16-.357-.893-.178-2.232-.804-2.143-.625.09-.089 1.696-.446 2.857-.358 1.16-1.162 1.875-.894 2.143.268.268.715-.268 1.162-.536.446-.268 1.161-.893 1.786-.268.536.536.179 1.518-1.518 2.5-.983.536-2.055.982-2.859 1.072-.625.089-1.161 0-1.519-.357-.357-.358-.536-.804-.536-1.161l.09-.09c.178-.178.357-.446.446-.803.09-.446 0-.982-.178-1.34.268-.446.625-1.16 1.34-1.25 1.161-.178 1.697.983 1.697.983s1.072-1.875.268-2.59c-.536-.535-2.233.358-2.859.715.09-.268.179-.625.268-.893.358-1.34.268-2.768-.178-3.929a6.988 6.988 0 0 0-2.055 3.393c-.09.179-.09.447-.09.625-.446-.625-1.34-1.964-2.054-1.785-.983.267-.983 2.321-.983 2.321s.983-.714 1.787 0c.625.536.625 1.607.536 1.964-.447.179-.804.625-.893 1.161-.09.357-.09.625 0 .893v.09c-.536.446-1.519.981-2.591.981-.715 0-1.25-.268-1.697-.714-.536-.536-.894-1.34-1.162-2.232v-.09c-.268-1.07-.357-2.678-.357-2.678s.715-.268 1.608.357c0 0 .09 0 .09.09 1.071.803 1.071 1.785 1.607 1.785.447 0 .358-1.518.447-2.59.09-1.428.447-2.231.447-2.231.089-.09 0-.357-.179-.357-.268-.358-.357-.09-.357-.09s0 .715-1.34 1.34c-.179.089-.268.089-.447.178-.804.179-1.519-.09-1.519-.09s-.357-1.07.626-2.142c.089-.09.268-.268.446-.357.268-.179.626-.357.983-.447.357-.089.715-.178.983-.178V.625c0-.357-.268-.536-.536-.625-.179 0-.358.09-.536.09-.536.089-1.072.178-1.519.267-.536.09-1.072.09-1.697.09-.536 0-1.162 0-1.698-.09A50.996 50.996 0 0 1 18.135.09c-.09 0-.268-.089-.447-.089-.268.09-.536.357-.536.625v.268c.268 0 .625.09 1.072.268.357.089.625.268.983.446.178.09.268.179.446.357 1.072 1.072.715 2.143.715 2.143s-.804.179-1.608 0c-.179 0-.268-.09-.447-.178-1.34-.625-1.429-1.34-1.429-1.34s-.09-.268-.357-.178c-.179.089-.179.268-.179.357 0 0 .357.714.447 2.232.089 1.071 0 2.59.446 2.59.536 0 .536-.983 1.608-1.786 0 0 .09 0 .09-.09.893-.535 1.697-.357 1.697-.357s-.09 1.697-.447 2.679v.089c-.268.893-.625 1.696-1.161 2.232-.447.447-.983.714-1.697.714-1.072 0-1.966-.535-2.591-.982V10a1.52 1.52 0 0 0 0-.893c-.09-.536-.447-.893-.893-1.16-.09-.447-.09-1.43.536-1.965.893-.714 1.786 0 1.786 0s0-2.053-.982-2.321c-.626-.179-1.608 1.16-2.055 1.785 0-.178-.09-.446-.09-.625a6.988 6.988 0 0 0-2.054-3.392 6.537 6.537 0 0 0-.179 3.928c.09.268.179.625.268.893-.536-.179-2.144-.982-2.68-.536-.804.715.268 2.59.268 2.59s.536-1.161 1.698-.983c.714.09 1.161.804 1.34 1.25a1.424 1.424 0 0 0-.179 1.34c.09.357.268.625.447.803l.089.09c-.09.357-.268.803-.536 1.16-.357.357-.893.447-1.519.357-.893-.089-1.876-.535-2.858-1.071-1.787-.893-2.144-1.875-1.608-2.41.625-.536 1.34 0 1.786.267.447.268.894.714 1.162.536.268-.268-.536-.982-.894-2.143-.446-1.16.179-2.768-.446-2.857-.626-.09-.447 1.25-.804 2.143-.358.893-1.34 1.25-1.876 1.16-.447-.178-.983-.892-.804-2.142a5.92 5.92 0 0 1 .804-1.697c.178-.268.357-.446.536-.714a.61.61 0 0 0-.626-.625c-.089 0-.268 0-.357.09-.09 0-.09.088-.09.088-.357.358-.625.715-1.071.893-.715.447-1.698.893-1.698.893l4.914 8.482 1.34 2.232v1.161h-1.34c0-.178-.09-.357-.179-.536-.447-1.071-1.43-1.785-2.68-1.785a2.821 2.821 0 0 0-2.859 2.857c0 .625.179 1.16.536 1.607.447.625 1.072 1.071 1.787 1.16v.894h-.09a1.982 1.982 0 0 0-1.965 1.964v2.946c0 1.072.894 1.965 1.966 1.965h.089v.803h-.09a1.982 1.982 0 0 0-1.965 1.964v2.947c0 1.071.894 1.964 1.966 1.964h.089v.804h-.09a1.982 1.982 0 0 0-1.965 1.964v2.946c0 1.072.894 1.965 1.966 1.965h.089v.893a2.882 2.882 0 0 0-2.323 2.857 2.821 2.821 0 0 0 2.859 2.857 2.821 2.821 0 0 0 2.859-2.857c0-1.429-.983-2.59-2.323-2.857v-.893h.09a1.982 1.982 0 0 0 1.965-1.965v-2.946a1.982 1.982 0 0 0-1.966-1.964v-.804h.09a1.982 1.982 0 0 0 1.965-1.964v-2.947a1.982 1.982 0 0 0-1.965-1.964h-.09v-.803h.09a1.982 1.982 0 0 0 1.965-1.965v-2.946a1.982 1.982 0 0 0-1.965-1.964h-.09v-.893c1.162-.268 2.055-1.161 2.234-2.232h1.429V47.41h1.34l1.34-3.215 1.072-2.5h-1.072V37.68h3.752v4.017h-1.072l1.072 2.59 1.25 2.946 1.251-3.036 1.072-2.5h-1.072V37.68h3.752v4.017h-1.072l1.072 2.59 1.251 2.946 1.25-3.036 1.073-2.589H22.69V37.59h3.752v4.018H25.37l1.072 2.59 1.25 2.946 1.251-3.036 1.072-2.5h-1.072V37.59h3.752v4.018h-1.072l1.072 2.59 1.34 3.124h1.34V17.857h1.43c.267 1.16 1.16 2.054 2.233 2.232v.893h-.09a1.982 1.982 0 0 0-1.965 1.964v3.036c0 1.072.893 1.964 1.965 1.964h.09v.804h-.09a1.982 1.982 0 0 0-1.965 1.964v2.947c0 1.071.893 1.964 1.965 1.964h.09v.804h-.09a1.982 1.982 0 0 0-1.965 1.964v2.946c0 1.072.893 1.965 1.965 1.965h.09v.892a2.882 2.882 0 0 0-2.323 2.858 2.821 2.821 0 0 0 2.859 2.857 2.821 2.821 0 0 0 2.858-2.857c.09-1.34-.893-2.5-2.233-2.768zM5.003 47.143c0 .982-.804 1.696-1.698 1.696a1.696 1.696 0 0 1-1.697-1.696c0-.714.447-1.429 1.161-1.607v.446c0 .268.268.536.536.536s.536-.268.536-.536v-.446c.626.178 1.162.803 1.162 1.607zM3.93 37.679c.268 0 .446.089.625.267.179.179.179.358.179.536v2.947c0 .178-.09.446-.179.535a.811.811 0 0 1-.625.268h-.09v-.536c0-.267-.178-.535-.536-.535h-.178c-.268 0-.536.268-.536.535v.536H2.5a.811.811 0 0 1-.625-.268c0-.178-.09-.357-.09-.535v-2.947c0-.178.09-.357.18-.536a.811.811 0 0 1 .625-.267h.089v.535c0 .268.268.536.536.536h.179c.268 0 .446-.268.446-.536l.09-.535c-.09 0-.09 0 0 0zm0-7.768a.81.81 0 0 1 .625.268c.179.178.179.357.179.535v2.947c0 .178-.09.446-.179.535a.811.811 0 0 1-.625.268h-.09v-.535c0-.268-.178-.536-.536-.536h-.178c-.268 0-.447.268-.447.536v.535h-.09a.811.811 0 0 1-.625-.268c-.089-.089-.178-.267-.178-.535v-2.947c0-.178.089-.357.178-.535a.811.811 0 0 1 .626-.268h.089v.535c0 .268.268.536.536.536h.179c.268 0 .446-.268.446-.536l.09-.535c-.09 0-.09 0 0 0zm0-7.679c.268 0 .446.09.625.268.179.179.179.357.179.536v2.946c0 .179-.09.447-.179.536-.268.178-.447.268-.625.268h-.09v-.536c0-.268-.178-.536-.536-.536h-.178c-.268-.089-.447.179-.447.447v.625h-.09a.811.811 0 0 1-.625-.268c-.089-.179-.178-.357-.178-.536v-2.946c0-.179.089-.357.178-.536a.811.811 0 0 1 .626-.268h.089v.536c0 .268.268.536.536.536h.179c.268 0 .446-.268.446-.536l.09-.536c-.09 0-.09 0 0 0zm-.09-3.303v-.447a.61.61 0 0 0-.625-.625c-.268 0-.536.268-.536.625v.447c-.357-.09-.625-.358-.804-.625-.179-.268-.357-.625-.357-1.072 0-.982.804-1.696 1.697-1.696.715 0 1.34.446 1.608 1.071v.09h-.447c-.357 0-.536.178-.625.535v.09c0 .357.268.535.625.535h.536c-.178.536-.625.893-1.072 1.072zm10.095 16.25h-3.752V31.25h3.752v3.929zm0-6.429h-3.752v-4.018h3.752v4.018zm0-6.429h-3.752v-4.017h3.752v4.017zm6.253 12.858h-3.752V31.25h3.752v3.929zm0-6.429h-3.752v-4.018h3.752v4.018zm0-6.429h-3.752v-4.017h3.752v4.017zm6.254 12.858H22.69V31.25h3.752v3.929zm0-6.429H22.69v-4.018h3.752v4.018zm0-6.429H22.69v-4.017h3.752v4.017zm6.253 12.858h-3.752V31.25h3.752v3.929zm0-6.429h-3.752v-4.018h3.752v4.018zm0-6.429h-3.752v-4.017h3.752v4.017zm-3.752-6.785h-18.76v-.982c1.25-.358 2.501-.715 3.752-.983 2.412-.535 4.913-.714 7.504-.714 2.59 0 5.092.268 7.504.714 1.25.268 2.501.625 3.752.983v.982h-3.752zm9.023 2.321h.536c.357 0 .625-.268.625-.536v-.089c0-.268-.268-.536-.625-.536h-.536v-.089a1.765 1.765 0 0 1 1.608-1.071c.982 0 1.697.803 1.697 1.696 0 .357-.09.714-.357 1.072-.179.267-.447.446-.804.625v-.447c0-.357-.268-.536-.536-.536-.358 0-.536.268-.536.536v.447c-.447-.179-.894-.536-1.072-1.072zm.982 8.929a.811.811 0 0 1-.625-.268c-.179-.179-.179-.357-.179-.536v-2.946c0-.179.09-.447.179-.536a.811.811 0 0 1 .625-.268h.09v.536c0 .268.178.536.446.536h.179c.268 0 .447-.268.536-.536v-.536h.09c.267 0 .446.09.625.268.089.179.178.357.178.536v2.946c0 .179-.089.357-.178.536a.811.811 0 0 1-.626.268H40.2v-.536c0-.268-.179-.536-.536-.536h-.179c-.268 0-.536.268-.536.536v.536zm0 7.678a.811.811 0 0 1-.625-.268c-.179-.178-.179-.357-.179-.535v-2.947c0-.178.09-.446.179-.535a.811.811 0 0 1 .625-.268h.09v.535c0 .268.178.536.446.536h.179c.268 0 .447-.268.536-.536v-.535h.09c.267 0 .446.089.625.268.089.178.178.357.178.535v2.947c0 .178-.089.357-.178.535a.811.811 0 0 1-.626.268H40.2v-.535c0-.268-.179-.536-.536-.536h-.179c-.268 0-.536.268-.536.536v.535zm0 7.768a.811.811 0 0 1-.625-.268c-.179-.178-.179-.357-.179-.535v-2.947c0-.178.09-.446.179-.536a.811.811 0 0 1 .625-.267h.09v.535c0 .268.178.536.446.536h.179c.268 0 .447-.268.536-.536v-.535h.09c.267 0 .446.089.625.267.089.179.178.358.178.536v2.947c0 .178-.089.357-.178.535a.811.811 0 0 1-.626.268H40.2v-.536c0-.267-.179-.535-.536-.535h-.179c-.268 0-.536.268-.536.535v.536zm.715 6.607a1.696 1.696 0 0 1-1.697-1.696c0-.714.446-1.429 1.161-1.607v.446c0 .268.268.536.536.536s.536-.268.536-.536v-.446c.715.268 1.161.893 1.161 1.607 0 .893-.804 1.696-1.697 1.696z" fill="#FFF"/></svg>
