<?xml version="1.0" encoding="utf-8"?>
<!-- Generator: Adobe Illustrator 19.2.1, SVG Export Plug-In . SVG Version: 6.00 Build 0)  -->
<svg version="1.1" id="Layer_1" xmlns="http://www.w3.org/2000/svg" xmlns:xlink="http://www.w3.org/1999/xlink" x="0px" y="0px"
	 viewBox="0 0 47.3 56" style="enable-background:new 0 0 47.3 56;" xml:space="preserve">
<path d="M45,49.6v-1h0.1c1.2,0,2.2-1,2.2-2.2v-3.3c0-1.2-1-2.2-2.2-2.2H45l0,0V40h0.1c1.2,0,2.2-1,2.2-2.2v-3.3c0-1.2-1-2.2-2.2-2.2
	H45l0,0v-0.9h0.1c1.2,0,2.2-1,2.2-2.2v-3.3c0-1.2-1-2.2-2.2-2.2H45v-1c0.8-0.2,1.5-0.7,2-1.3c0.4-0.5,0.6-1.2,0.6-1.8
	c0-1.8-1.4-3.2-3.2-3.2c-1.3,0-2.5,0.8-3,2c-0.1,0.2-0.2,0.4-0.2,0.6h-1.6v-1.4l0,0l0,0l1.5-2.5l5.5-9.5c0,0-1.1-0.6-1.9-1
	c-0.4-0.2-0.8-0.6-1.1-0.9l-0.1-0.1c-0.1-0.1-0.2-0.1-0.4-0.1c-0.4,0-0.7,0.3-0.7,0.7C42.6,4.4,42.8,4.7,43,5
	c0.4,0.5,0.7,1.1,0.8,1.9c0.2,0.9-0.3,1.8-0.8,2s-1.6-0.3-2.1-1.3c-0.4-1-0.2-2.5-0.9-2.4s-0.1,1.9-0.5,3.2s-1.3,2.1-1,2.4
	c0.3,0.3,0.8-0.3,1.3-0.6s1.3-1,2-0.3c0.6,0.6,0.2,1.7-1.7,2.8c-1.1,0.6-2.3,1.1-3.2,1.2c-0.7,0.1-1.3,0-1.7-0.4s-0.6-0.9-0.6-1.3
	l0.1-0.1c0.2-0.2,0.4-0.5,0.5-0.9c0.1-0.5,0-1.1-0.2-1.5c0.3-0.5,0.7-1.3,1.5-1.4c1.3-0.2,1.9,1.1,1.9,1.1s1.2-2.1,0.3-2.9
	c-0.6-0.6-2.5,0.4-3.2,0.8c0.1-0.3,0.2-0.7,0.3-1c0.4-1.5,0.3-3.1-0.2-4.4c-1.1,1-1.9,2.3-2.3,3.8c-0.1,0.2-0.1,0.5-0.1,0.7
	c-0.5-0.7-1.5-2.2-2.3-2C29.8,4.7,29.8,7,29.8,7s1.1-0.8,2,0c0.7,0.6,0.7,1.8,0.6,2.2c-0.5,0.2-0.9,0.7-1,1.3c-0.1,0.4-0.1,0.7,0,1
	c0,0,0,0,0,0.1c-0.6,0.5-1.7,1.1-2.9,1.1c-0.8,0-1.4-0.3-1.9-0.8c-0.6-0.6-1-1.5-1.3-2.5V9.3c-0.3-1.2-0.4-3-0.4-3s0.8-0.3,1.8,0.4
	c0,0,0.1,0,0.1,0.1c1.2,0.9,1.2,2,1.8,2c0.5,0,0.4-1.7,0.5-2.9c0.1-1.6,0.5-2.5,0.5-2.5c0.1-0.1,0-0.4-0.2-0.4
	C29.1,2.6,29,2.9,29,2.9s0,0.8-1.5,1.5c-0.2,0.1-0.3,0.1-0.5,0.2c-0.9,0.2-1.7-0.1-1.7-0.1S24.9,3.3,26,2.1c0.1-0.1,0.3-0.3,0.5-0.4
	c0.3-0.2,0.7-0.4,1.1-0.5C28,1.1,28.4,1,28.7,1c0-0.1,0-0.2,0-0.3c0-0.4-0.3-0.6-0.6-0.7c-0.2,0-0.4,0.1-0.6,0.1
	c-0.6,0.1-1.2,0.2-1.7,0.3c-0.6,0.1-1.2,0.1-1.9,0.1c-0.6,0-1.3,0-1.9-0.1s-1.2-0.2-1.7-0.3C20.2,0.1,20,0,19.8,0
	c-0.3,0.1-0.6,0.4-0.6,0.7c0,0.1,0,0.2,0,0.3c0.3,0,0.7,0.1,1.2,0.3c0.4,0.1,0.7,0.3,1.1,0.5C21.7,1.9,21.8,2,22,2.2
	c1.2,1.2,0.8,2.4,0.8,2.4s-0.9,0.2-1.8,0c-0.2,0-0.3-0.1-0.5-0.2c-1.5-0.7-1.6-1.5-1.6-1.5s-0.1-0.3-0.4-0.2
	c-0.2,0.1-0.2,0.3-0.2,0.4c0,0,0.4,0.8,0.5,2.5c0.1,1.2,0,2.9,0.5,2.9c0.6,0,0.6-1.1,1.8-2c0,0,0.1,0,0.1-0.1c1-0.6,1.9-0.4,1.9-0.4
	S23,7.9,22.6,9v0.1c-0.3,1-0.7,1.9-1.3,2.5c-0.5,0.5-1.1,0.8-1.9,0.8c-1.2,0-2.2-0.6-2.9-1.1c0,0,0,0,0-0.1c0.1-0.3,0.1-0.7,0-1
	c-0.1-0.6-0.5-1-1-1.3c-0.1-0.5-0.1-1.6,0.6-2.2c1-0.8,2,0,2,0s0-2.3-1.1-2.6c-0.7-0.2-1.8,1.3-2.3,2c0-0.2-0.1-0.5-0.1-0.7
	c-0.4-1.5-1.2-2.8-2.3-3.8C11.8,3,11.7,4.5,12.1,6c0.1,0.3,0.2,0.7,0.3,1c-0.6-0.2-2.4-1.1-3-0.6C8.5,7.2,9.7,9.3,9.7,9.3
	s0.6-1.3,1.9-1.1c0.8,0.1,1.3,0.9,1.5,1.4c-0.3,0.4-0.4,1-0.2,1.5c0.1,0.4,0.3,0.7,0.5,0.9l0.1,0.1c-0.1,0.4-0.3,0.9-0.6,1.3
	c-0.4,0.4-1,0.5-1.7,0.4c-1-0.1-2.1-0.6-3.2-1.2c-2-1-2.4-2.1-1.8-2.7c0.7-0.6,1.5,0,2,0.3s1,0.8,1.3,0.6c0.3-0.3-0.6-1.1-1-2.4
	C8,7.1,8.7,5.3,8,5.2C7.3,5.1,7.5,6.6,7.1,7.6S5.6,9,5,8.9c-0.5-0.2-1.1-1-0.9-2.4C4.3,5.8,4.6,5.2,5,4.6c0.2-0.3,0.4-0.5,0.6-0.8
	c0-0.4-0.3-0.7-0.7-0.7c-0.1,0-0.3,0-0.4,0.1c-0.1,0-0.1,0.1-0.1,0.1C4,3.7,3.7,4.1,3.2,4.3c-0.8,0.5-1.9,1-1.9,1l5.5,9.5l1.5,2.5
	l0,0l0,0v1.3H6.8c0-0.2-0.1-0.4-0.2-0.6c-0.5-1.2-1.6-2-3-2c-1.8,0-3.2,1.4-3.2,3.2c0,0.7,0.2,1.3,0.6,1.8c0.5,0.7,1.2,1.2,2,1.3v1
	H2.9c-1.2,0-2.2,1-2.2,2.2v3.3c0,1.2,1,2.2,2.2,2.2H3v0.9l0,0H2.9c-1.2,0-2.2,1-2.2,2.2v3.3c0,1.2,1,2.2,2.2,2.2H3v0.9l0,0H2.9
	c-1.2,0-2.2,1-2.2,2.2V46c0,1.2,1,2.2,2.2,2.2H3v1c-1.5,0.3-2.6,1.6-2.6,3.2c0,1.8,1.4,3.2,3.2,3.2s3.2-1.4,3.2-3.2
	c0-1.6-1.1-2.9-2.6-3.2v-1h0.1c1.2,0,2.2-1,2.2-2.2v-0.1v-3.1v-0.1c0-1.2-1-2.2-2.2-2.2l0,0l0,0l0,0l0,0v-0.9h0.1
	c1.2,0,2.2-1,2.2-2.2v-0.1v-3.1v-0.1c0-1.2-1-2.2-2.2-2.2l0,0l0,0H4.3l0,0V31h0.1c1.2,0,2.2-1,2.2-2.2v-0.1v-3.1v-0.1
	c0-1.2-1-2.2-2.2-2.2l0,0l0,0H4.3v-1C5.6,22,6.6,21,6.8,19.8h1.6v0.5V25v2.7v4.5V35v4.5v2.7v4.5v6.4h1.5l1.5-3.6l1.2-2.8h-1.2v-4.5
	h4.2v4.5h-1.2l1.2,2.9l1.4,3.3l1.4-3.4l1.2-2.8h-1.2v-4.5h4.2v4.5h-1.2l1.2,2.9l1.4,3.3l1.4-3.4l1.2-2.9h-1.2v-4.5h4.2v4.5h-1.2
	l1.2,2.9l1.4,3.3l1.4-3.4l1.2-2.8h-1.2v-4.5h4.2v4.5h-1.2l1.2,2.9l1.5,3.5h1.5v-6.4v-4.5v-2.7V35v-2.7v-4.5V25v-4.5V20h1.6
	c0.3,1.3,1.3,2.3,2.5,2.5v1h-0.1l0,0l0,0c-1.2,0-2.2,1-2.2,2.2v0.1V29v0.1c0,1.2,1,2.2,2.2,2.2h0.1v0.9l0,0h-0.1l0,0l0,0
	c-1.2,0-2.2,1-2.2,2.2v0.1v3.1v0.1c0,1.2,1,2.2,2.2,2.2h0.1v0.9l0,0h-0.1l0,0l0,0c-1.2,0-2.2,1-2.2,2.2v0.1v3.1v0.1
	c0,1.2,1,2.2,2.2,2.2h0.1v1c-1.5,0.3-2.6,1.6-2.6,3.2c0,1.8,1.4,3.2,3.2,3.2s3.2-1.4,3.2-3.2C47.6,51.2,46.5,49.9,45,49.6z
	 M5.6,52.8c0,1.1-0.9,1.9-1.9,1.9c-1.1,0-1.9-0.9-1.9-1.9c0-0.8,0.5-1.6,1.3-1.8v0.5l0,0l0,0c0,0.3,0.3,0.6,0.6,0.6s0.6-0.3,0.6-0.6
	l0,0l0,0V51C5,51.2,5.6,51.9,5.6,52.8z M4.4,42.2c0.3,0,0.5,0.1,0.7,0.3s0.2,0.4,0.2,0.6l0,0v1.3v0.7v1.3l0,0c0,0.2-0.1,0.5-0.2,0.6
	c-0.2,0.2-0.4,0.3-0.7,0.3H4.3l0,0v-0.6l0,0c0-0.3-0.2-0.6-0.6-0.6H3.6H3.5c-0.3,0-0.6,0.3-0.6,0.6l0,0v0.6l0,0c0,0,0,0-0.1,0
	c-0.3,0-0.5-0.1-0.7-0.3c0-0.2-0.1-0.4-0.1-0.6v-1.3v-0.7v-1.3c0-0.2,0.1-0.4,0.2-0.6c0.2-0.2,0.4-0.3,0.7-0.3c0,0,0,0,0.1,0v0.6
	l0,0c0,0.3,0.3,0.6,0.6,0.6h0.1h0.1c0.3,0,0.5-0.3,0.5-0.6l0,0L4.4,42.2C4.3,42.2,4.3,42.2,4.4,42.2z M4.4,33.5
	c0.3,0,0.5,0.1,0.7,0.3s0.2,0.4,0.2,0.6l0,0v1.3v0.7v1.3l0,0c0,0.2-0.1,0.5-0.2,0.6c-0.2,0.2-0.4,0.3-0.7,0.3H4.3l0,0V38l0,0
	c0-0.3-0.2-0.6-0.6-0.6H3.6H3.5C3.2,37.4,3,37.7,3,38l0,0v0.6l0,0c0,0,0,0-0.1,0c-0.3,0-0.5-0.1-0.7-0.3C2.1,38.2,2,38,2,37.7v-1.3
	v-0.7v-1.3c0-0.2,0.1-0.4,0.2-0.6c0.2-0.2,0.4-0.3,0.7-0.3c0,0,0,0,0.1,0v0.6l0,0c0,0.3,0.3,0.6,0.6,0.6h0.1h0.1
	c0.3,0,0.5-0.3,0.5-0.6l0,0L4.4,33.5C4.3,33.5,4.3,33.5,4.4,33.5z M4.4,24.9c0.3,0,0.5,0.1,0.7,0.3c0.2,0.2,0.2,0.4,0.2,0.6l0,0v1.3
	v0.7v1.3l0,0c0,0.2-0.1,0.5-0.2,0.6C4.8,29.9,4.6,30,4.4,30H4.3v-0.6l0,0c0-0.3-0.2-0.6-0.6-0.6H3.6H3.5C3.2,28.7,3,29,3,29.3l0,0
	V30c0,0,0,0-0.1,0c-0.3,0-0.5-0.1-0.7-0.3C2.1,29.5,2,29.3,2,29.1v-1.3v-0.7v-1.3c0-0.2,0.1-0.4,0.2-0.6c0.2-0.2,0.4-0.3,0.7-0.3
	c0,0,0,0,0.1,0v0.6l0,0l0,0c0,0.3,0.3,0.6,0.6,0.6h0.1h0.1c0.3,0,0.5-0.3,0.5-0.6l0,0l0,0L4.4,24.9C4.3,24.9,4.3,24.9,4.4,24.9z
	 M4.3,21.2v-0.5l0,0C4.3,20.3,4,20,3.6,20C3.3,20,3,20.3,3,20.7l0,0v0.5c-0.4-0.1-0.7-0.4-0.9-0.7c-0.2-0.3-0.4-0.7-0.4-1.2
	c0-1.1,0.9-1.9,1.9-1.9c0.8,0,1.5,0.5,1.8,1.2c0,0,0,0,0,0.1H5.3H4.9l0,0c-0.4,0-0.6,0.2-0.7,0.6c0,0,0,0,0,0.1
	c0,0.4,0.3,0.6,0.7,0.6l0,0h0.6C5.3,20.6,4.8,21,4.3,21.2z M15.6,39.4h-4.2V35h4.2V39.4z M15.6,32.2h-4.2v-4.5h4.2V32.2z M15.6,25
	h-4.2v-4.5h4.2V25z M22.6,39.4h-4.2V35h4.2C22.6,35,22.6,39.4,22.6,39.4z M22.6,32.2h-4.2v-4.5h4.2C22.6,27.7,22.6,32.2,22.6,32.2z
	 M22.6,25h-4.2v-4.5h4.2C22.6,20.5,22.6,25,22.6,25z M29.6,39.4h-4.2V35h4.2C29.6,35,29.6,39.4,29.6,39.4z M29.6,32.2h-4.2v-4.5h4.2
	C29.6,27.7,29.6,32.2,29.6,32.2z M29.6,25h-4.2v-4.5h4.2C29.6,20.5,29.6,25,29.6,25z M36.6,39.4h-4.2V35h4.2V39.4z M36.6,32.2h-4.2
	v-4.5h4.2V32.2z M36.6,25h-4.2v-4.5h4.2V25z M32.4,17.4h-2.8h-4.2h-2.8h-4.2h-2.8h-4.2v-1.1c1.4-0.4,2.8-0.8,4.2-1.1
	c2.7-0.6,5.5-0.8,8.4-0.8s5.7,0.3,8.4,0.8c1.4,0.3,2.8,0.7,4.2,1.1v1.1H32.4z M42.5,20h0.6l0,0c0.4,0,0.7-0.3,0.7-0.6c0,0,0,0,0-0.1
	c0-0.3-0.3-0.6-0.7-0.6l0,0h-0.4h-0.2c0,0,0,0,0-0.1c0.3-0.7,1-1.2,1.8-1.2c1.1,0,1.9,0.9,1.9,1.9c0,0.4-0.1,0.8-0.4,1.2
	c-0.2,0.3-0.5,0.5-0.9,0.7v-0.5l0,0c0-0.4-0.3-0.6-0.6-0.6c-0.4,0-0.6,0.3-0.6,0.6l0,0v0.5C43.2,21,42.7,20.6,42.5,20z M43.6,30
	c-0.3,0-0.5-0.1-0.7-0.3c-0.2-0.2-0.2-0.4-0.2-0.6l0,0v-1.3v-0.7v-1.3l0,0c0-0.2,0.1-0.5,0.2-0.6c0.2-0.2,0.4-0.3,0.7-0.3h0.1v0.6
	l0,0l0,0c0,0.3,0.2,0.6,0.5,0.6h0.1h0.1c0.3,0,0.5-0.3,0.6-0.6l0,0l0,0v-0.6c0,0,0,0,0.1,0c0.3,0,0.5,0.1,0.7,0.3
	c0.1,0.2,0.2,0.4,0.2,0.6v1.3v0.7v1.3c0,0.2-0.1,0.4-0.2,0.6c-0.2,0.2-0.4,0.3-0.7,0.3c0,0,0,0-0.1,0v-0.6l0,0
	c0-0.3-0.2-0.6-0.6-0.6h-0.1h-0.1c-0.3,0-0.6,0.3-0.6,0.6l0,0V30C43.7,30,43.7,30,43.6,30z M43.6,38.6c-0.3,0-0.5-0.1-0.7-0.3
	s-0.2-0.4-0.2-0.6l0,0v-1.3v-0.7v-1.3l0,0c0-0.2,0.1-0.5,0.2-0.6c0.2-0.2,0.4-0.3,0.7-0.3h0.1v0.6l0,0c0,0.3,0.2,0.6,0.5,0.6h0.1
	h0.1c0.3,0,0.5-0.3,0.6-0.6l0,0v-0.6c0,0,0,0,0.1,0c0.3,0,0.5,0.1,0.7,0.3c0.1,0.2,0.2,0.4,0.2,0.6v1.3v0.7v1.3
	c0,0.2-0.1,0.4-0.2,0.6c-0.2,0.2-0.4,0.3-0.7,0.3c0,0,0,0-0.1,0l0,0V38l0,0c0-0.3-0.2-0.6-0.6-0.6h-0.1h-0.1c-0.3,0-0.6,0.3-0.6,0.6
	l0,0V38.6L43.6,38.6C43.7,38.6,43.7,38.6,43.6,38.6z M43.6,47.3c-0.3,0-0.5-0.1-0.7-0.3s-0.2-0.4-0.2-0.6l0,0v-1.3v-0.7v-1.3l0,0
	c0-0.2,0.1-0.5,0.2-0.6c0.2-0.2,0.4-0.3,0.7-0.3h0.1v0.6l0,0c0,0.3,0.2,0.6,0.5,0.6h0.1h0.1c0.3,0,0.5-0.3,0.6-0.6l0,0v-0.6
	c0,0,0,0,0.1,0c0.3,0,0.5,0.1,0.7,0.3c0.1,0.2,0.2,0.4,0.2,0.6v1.3v0.7v1.3c0,0.2-0.1,0.4-0.2,0.6c-0.2,0.2-0.4,0.3-0.7,0.3
	c0,0,0,0-0.1,0l0,0v-0.6l0,0c0-0.3-0.2-0.6-0.6-0.6h-0.1h-0.1c-0.3,0-0.6,0.3-0.6,0.6l0,0V47.3L43.6,47.3
	C43.7,47.3,43.7,47.3,43.6,47.3z M44.4,54.7c-1.1,0-1.9-0.9-1.9-1.9c0-0.8,0.5-1.6,1.3-1.8v0.5l0,0l0,0c0,0.3,0.3,0.6,0.6,0.6
	s0.6-0.3,0.6-0.6l0,0l0,0V51c0.8,0.3,1.3,1,1.3,1.8C46.3,53.8,45.4,54.7,44.4,54.7z"/>
</svg>
