<svg id="Layer_1" data-name="Layer 1" xmlns="http://www.w3.org/2000/svg" viewBox="0 0 42.025 49.851"><title>portcullis--black</title><path d="M39.713,44.234v-0.9h0.065a1.954,1.954,0,0,0,1.954-1.954V38.425a1.954,1.954,0,0,0-1.954-1.954H39.713V35.631h0.065a1.954,1.954,0,0,0,1.954-1.954V30.719a1.954,1.954,0,0,0-1.954-1.954H39.713V27.926h0.065a1.954,1.954,0,0,0,1.954-1.954V23.014a1.954,1.954,0,0,0-1.954-1.954H39.713v-0.9a2.875,2.875,0,1,0-3.22-3.944,2.841,2.841,0,0,0-.173.553H34.928V15.544h0l1.3-2.23,4.931-8.484S40.2,4.329,39.47,3.9a6.844,6.844,0,0,1-.99-0.781,0.644,0.644,0,0,0-1.114.4c0.181,0.212.372,0.434,0.551,0.675a3.68,3.68,0,0,1,.752,1.662,1.823,1.823,0,0,1-.792,2.093A1.762,1.762,0,0,1,36.044,6.83c-0.373-.9-0.2-2.2-0.774-2.106-0.622.1-.074,1.7-0.417,2.861s-1.148,1.843-.909,2.1,0.677-.238,1.116-0.5,1.193-.872,1.78-0.3c0.525,0.508.181,1.511-1.5,2.515a7.773,7.773,0,0,1-2.878,1.1,1.7,1.7,0,0,1-1.494-.382,2.42,2.42,0,0,1-.565-1.2c0.03-.026.058-0.054,0.087-0.082a1.735,1.735,0,0,0,.258-2.138A2.071,2.071,0,0,1,32.1,7.437a1.614,1.614,0,0,1,1.649.939s1.043-1.851.273-2.574c-0.532-.5-2.2.333-2.836,0.684a6.724,6.724,0,0,0,.3-0.9,6.645,6.645,0,0,0-.2-3.936,6.647,6.647,0,0,0-2.055,3.363c-0.054.212-.1,0.425-0.129,0.637-0.4-.616-1.376-1.983-2.031-1.811-0.974.256-.944,2.281-0.944,2.281a1.54,1.54,0,0,1,1.809-.036,2.211,2.211,0,0,1,.53,1.972A1.733,1.733,0,0,0,27.6,10.1c0.006,0.02.012,0.04,0.018,0.06a4.365,4.365,0,0,1-2.543.971,2.316,2.316,0,0,1-1.687-.712,5.109,5.109,0,0,1-1.172-2.235C22.207,8.155,22.2,8.129,22.193,8.1a17.352,17.352,0,0,1-.371-2.651,1.892,1.892,0,0,1,1.564.345c0.028,0.02.056,0.039,0.085,0.061,1.075,0.836,1.09,1.778,1.6,1.778,0.488,0,.394-1.532.473-2.6a6.654,6.654,0,0,1,.472-2.2,0.288,0.288,0,0,0-.157-0.371,0.275,0.275,0,0,0-.375.158A2.042,2.042,0,0,1,24.082,4a2.25,2.25,0,0,1-.436.148,3.064,3.064,0,0,1-1.505-.067,2.188,2.188,0,0,1,.679-2.12,2.691,2.691,0,0,1,.416-0.337,4,4,0,0,1,.939-0.446A5.98,5.98,0,0,1,25.217.937,0.644,0.644,0,0,0,24.734.075c-0.17.044-.341,0.085-0.514,0.123a14.822,14.822,0,0,1-1.552.257,15.026,15.026,0,0,1-1.675.1,15.025,15.025,0,0,1-1.675-.1A14.822,14.822,0,0,1,17.767.2c-0.172-.038-0.343-0.079-0.513-0.123a0.644,0.644,0,0,0-.483.863,5.98,5.98,0,0,1,1.042.243,4,4,0,0,1,.939.446,2.691,2.691,0,0,1,.416.337,2.189,2.189,0,0,1,.679,2.12,3.064,3.064,0,0,1-1.505.067A2.25,2.25,0,0,1,17.905,4a2.042,2.042,0,0,1-1.4-1.374,0.275,0.275,0,0,0-.375-0.158,0.288,0.288,0,0,0-.157.371,6.654,6.654,0,0,1,.472,2.2c0.079,1.063-.015,2.6.473,2.6,0.512,0,.527-0.941,1.6-1.778,0.028-.022.056-0.041,0.085-0.061a1.892,1.892,0,0,1,1.564-.345A17.352,17.352,0,0,1,19.794,8.1l-0.021.079A5.108,5.108,0,0,1,18.6,10.416a2.316,2.316,0,0,1-1.687.712,4.364,4.364,0,0,1-2.543-.971c0.007-.02.012-0.04,0.018-0.06a1.733,1.733,0,0,0-.869-2.042,2.211,2.211,0,0,1,.53-1.972,1.54,1.54,0,0,1,1.809.036s0.031-2.025-.944-2.281c-0.655-.172-1.63,1.2-2.031,1.811-0.033-.212-0.075-0.424-0.129-0.637A6.646,6.646,0,0,0,10.7,1.65a6.646,6.646,0,0,0-.2,3.936,6.737,6.737,0,0,0,.3.9C10.161,6.135,8.5,5.3,7.965,5.8,7.2,6.525,8.238,8.376,8.238,8.376a1.614,1.614,0,0,1,1.649-.939,2.071,2.071,0,0,1,1.35,1.258,1.735,1.735,0,0,0,.258,2.138c0.028,0.028.057,0.056,0.087,0.082a2.419,2.419,0,0,1-.565,1.2,1.7,1.7,0,0,1-1.494.382,7.773,7.773,0,0,1-2.878-1.1c-1.678-1-2.022-2.008-1.5-2.515,0.587-.567,1.342.042,1.78,0.3s0.881,0.751,1.116.5-0.566-.94-0.909-2.1,0.2-2.757-.417-2.861c-0.572-.1-0.4,1.208-0.774,2.106A1.762,1.762,0,0,1,4.11,7.958a1.823,1.823,0,0,1-.792-2.093A3.68,3.68,0,0,1,4.07,4.2c0.18-.241.371-0.463,0.551-0.675a0.645,0.645,0,0,0-1.114-.4,6.838,6.838,0,0,1-.989.781C1.787,4.329.833,4.829,0.833,4.829l4.931,8.484,1.3,2.233,0,0,0.012,0.021v1.2H5.68a2.875,2.875,0,0,0-5.692.574,2.882,2.882,0,0,0,2.3,2.817v0.9H2.222A1.954,1.954,0,0,0,.268,23.014v2.958a1.954,1.954,0,0,0,1.954,1.954H2.287v0.839H2.222A1.954,1.954,0,0,0,.268,30.719v2.958a1.954,1.954,0,0,0,1.954,1.954H2.287V36.47H2.222A1.954,1.954,0,0,0,.268,38.425v2.958a1.954,1.954,0,0,0,1.954,1.954H2.287v0.9a2.875,2.875,0,1,0,1.149,0v-0.9H3.5a1.954,1.954,0,0,0,1.954-1.954c0-.039,0-0.076-0.006-0.114v-2.73c0-.038.006-0.076,0.006-0.114a1.954,1.954,0,0,0-1.941-1.953H3.436V35.631H3.5a1.954,1.954,0,0,0,1.954-1.954c0-.039,0-0.076-0.006-0.114v-2.73c0-.038.006-0.076,0.006-0.114a1.954,1.954,0,0,0-1.941-1.954H3.436V27.926H3.5a1.954,1.954,0,0,0,1.954-1.954c0-.039,0-0.076-0.006-0.114V23.128c0-.038.006-0.076,0.006-0.114A1.954,1.954,0,0,0,3.515,21.06H3.436v-0.9A2.883,2.883,0,0,0,5.679,17.92h1.4v29.4H8.435l1.319-3.187L10.8,41.594H9.754V37.618h3.739v3.977H12.4l1.1,2.591,1.254,2.963L16,44.113l1.042-2.519H16V37.617h3.739v3.978h-1.1l1.1,2.588L21,47.159l1.25-3.021L23.3,41.594H22.251V37.616H25.99v3.979H24.9l1.091,2.578,1.257,2.969L28.5,44.112l1.042-2.518H28.5V37.615h3.739v3.98h-1.1l1.1,2.6,1.321,3.121h1.368V17.92h1.393a2.883,2.883,0,0,0,2.243,2.243v0.9H38.485a1.954,1.954,0,0,0-1.941,1.954c0,0.039,0,.076.006,0.114v2.729c0,0.038-.006.076-0.006,0.114A1.954,1.954,0,0,0,38.5,27.926h0.065v0.839H38.485a1.954,1.954,0,0,0-1.941,1.954c0,0.039,0,.076.006,0.114v2.73c0,0.038-.006.076-0.006,0.114A1.954,1.954,0,0,0,38.5,35.631h0.065V36.47H38.485a1.954,1.954,0,0,0-1.941,1.953c0,0.039,0,.076.006,0.114v2.73c0,0.038-.006.076-0.006,0.114A1.954,1.954,0,0,0,38.5,43.337h0.065v0.9A2.875,2.875,0,1,0,39.713,44.234ZM4.588,47.05a1.726,1.726,0,1,1-2.3-1.625v0.506h0a0.574,0.574,0,0,0,1.146,0h0V45.425A1.727,1.727,0,0,1,4.588,47.05ZM3.515,37.624a0.8,0.8,0,0,1,.8.8h0v2.958h0a0.8,0.8,0,0,1-.8.8c-0.026,0-.053,0-0.079,0h0V41.607a0.574,0.574,0,0,0-.491-0.568,0.565,0.565,0,0,0-.083-0.007,0.578,0.578,0,0,0-.574.575h0V42.18h0c-0.022,0-.043,0-0.065,0a0.8,0.8,0,0,1-.8-0.8V38.425a0.8,0.8,0,0,1,.8-0.8c0.022,0,.044,0,0.065,0V38.2l0,0.032a0.578,0.578,0,0,0,.573.543,0.583,0.583,0,0,0,.085-0.007,0.574,0.574,0,0,0,.487-0.536l0-.032V37.628C3.462,37.625,3.488,37.624,3.515,37.624Zm0-7.705a0.8,0.8,0,0,1,.8.8h0v2.958h0a0.8,0.8,0,0,1-.8.8c-0.026,0-.053,0-0.079,0h0V33.9a0.579,0.579,0,0,0-.575-0.574,0.585,0.585,0,0,0-.07,0,0.574,0.574,0,0,0-.5.57h0v0.572h0c-0.022,0-.043,0-0.065,0a0.8,0.8,0,0,1-.8-0.8V30.719a0.8,0.8,0,0,1,.8-0.8c0.022,0,.044,0,0.065,0v0.57l0,0.031a0.574,0.574,0,0,0,.5.538,0.58,0.58,0,0,0,.07,0,0.579,0.579,0,0,0,.573-0.543l0-.031V29.922C3.462,29.92,3.488,29.918,3.515,29.918Zm0-7.705a0.8,0.8,0,0,1,.8.8h0v2.958h0a0.8,0.8,0,0,1-.8.8c-0.026,0-.053,0-0.079,0V26.2a0.574,0.574,0,0,0-.49-0.568,0.568,0.568,0,0,0-.084-0.007,0.578,0.578,0,0,0-.574.574h0V26.77c-0.022,0-.043,0-0.065,0a0.8,0.8,0,0,1-.8-0.8V23.014a0.8,0.8,0,0,1,.8-0.8c0.022,0,.044,0,0.065,0v0.6h0a0.574,0.574,0,0,0,1.146,0h0v-0.6C3.462,22.214,3.488,22.213,3.515,22.213ZM3.436,18.972V18.495a0.575,0.575,0,1,0-1.149,0h0v0.476a1.725,1.725,0,1,1,2.18-2.257c0.008,0.019.014,0.038,0.021,0.057H3.976a0.6,0.6,0,0,0-.607.509,0.543,0.543,0,0,0,0,.066,0.594,0.594,0,0,0,.612.575H4.488A1.732,1.732,0,0,1,3.436,18.972Zm10.057,16.2H9.754V31.193h3.739v3.976Zm0-6.424H9.754V24.769h3.739v3.976Zm0-6.424H9.754V18.345h3.739v3.976Zm6.249,12.847H16V31.193h3.739v3.976Zm0-6.424H16V24.768h3.739v3.976Zm0-6.424H16V18.344h3.739V22.32ZM25.99,35.167H22.251V31.192H25.99v3.976Zm0-6.424H22.251V24.768H25.99v3.976Zm0-6.424H22.251V18.344H25.99v3.976Zm6.249,12.847H28.5V31.191h3.739v3.976Zm0-6.424H28.5V24.767h3.739v3.976Zm0-6.424H28.5V18.343h3.739v3.976ZM28.5,15.544H9.754V14.585a37,37,0,0,1,3.739-.969,37.65,37.65,0,0,1,15.007,0,37,37,0,0,1,3.739.97v0.956H28.5Zm9.012,2.377h0.511a0.594,0.594,0,0,0,.612-0.575,0.543,0.543,0,0,0,0-.066,0.6,0.6,0,0,0-.607-0.509H37.512c0.007-.019.014-0.039,0.021-0.057a1.724,1.724,0,1,1,2.18,2.257V18.495h0a0.575,0.575,0,1,0-1.149,0v0.477A1.732,1.732,0,0,1,37.512,17.92Zm0.973,8.852a0.8,0.8,0,0,1-.8-0.8h0V23.014h0a0.8,0.8,0,0,1,.8-0.8c0.027,0,.053,0,0.079,0v0.6h0a0.574,0.574,0,0,0,1.146,0h0v-0.6c0.022,0,.043,0,0.065,0a0.8,0.8,0,0,1,.8.8v2.958a0.8,0.8,0,0,1-.8.8c-0.022,0-.044,0-0.065,0V26.2h0a0.578,0.578,0,0,0-.575-0.574,0.567,0.567,0,0,0-.084.007,0.574,0.574,0,0,0-.49.568v0.57C38.538,26.772,38.512,26.773,38.485,26.773Zm0,7.705a0.8,0.8,0,0,1-.8-0.8h0V30.719h0a0.8,0.8,0,0,1,.8-0.8c0.027,0,.053,0,0.079,0v0.569l0,0.031a0.579,0.579,0,0,0,.573.543,0.58,0.58,0,0,0,.07,0,0.574,0.574,0,0,0,.5-0.538l0-.031v-0.57c0.022,0,.043,0,0.065,0a0.8,0.8,0,0,1,.8.8v2.958a0.8,0.8,0,0,1-.8.8c-0.022,0-.044,0-0.065,0h0V33.9h0a0.574,0.574,0,0,0-.5-0.57,0.585,0.585,0,0,0-.07,0,0.579,0.579,0,0,0-.574.574v0.571h0C38.538,34.477,38.512,34.478,38.485,34.478Zm0,7.705a0.8,0.8,0,0,1-.8-0.8h0V38.425h0a0.8,0.8,0,0,1,.8-0.8c0.027,0,.053,0,0.079,0V38.2l0,0.032a0.574,0.574,0,0,0,.487.536,0.583,0.583,0,0,0,.085.007,0.578,0.578,0,0,0,.573-0.543l0-.032V37.627c0.022,0,.043,0,0.065,0a0.8,0.8,0,0,1,.8.8v2.958a0.8,0.8,0,0,1-.8.8c-0.022,0-.044,0-0.065,0h0V41.607h0a0.579,0.579,0,0,0-.575-0.575,0.564,0.564,0,0,0-.083.007,0.574,0.574,0,0,0-.491.568V42.18h0C38.538,42.182,38.512,42.184,38.485,42.184Zm0.652,6.593a1.725,1.725,0,0,1-.574-3.352v0.506h0a0.574,0.574,0,0,0,1.146,0h0V45.425A1.725,1.725,0,0,1,39.137,48.776Z" transform="translate(0.012 -0.075)"/></svg>