<?xml version="1.0" encoding="utf-8"?>
<!-- Generator: Adobe Illustrator 16.0.0, SVG Export Plug-In . SVG Version: 6.00 Build 0)  -->
<!DOCTYPE svg PUBLIC "-//W3C//DTD SVG 1.1//EN" "http://www.w3.org/Graphics/SVG/1.1/DTD/svg11.dtd">
<svg version="1.1" id="Layer_1" xmlns="http://www.w3.org/2000/svg" xmlns:xlink="http://www.w3.org/1999/xlink" x="0px" y="0px"
	 width="283px" height="114px" viewBox="0 0 283 114" enable-background="new 0 0 283 114" xml:space="preserve">
<g>
	<circle fill="#B1896C" cx="56.721" cy="57.009" r="46.896"/>
	<circle fill="#773F3E" cx="56.787" cy="57.024" r="42.41"/>
	<path fill="#B1896C" d="M97.891,57.169c0-11.119-8.023-20.363-18.597-22.261c-1.896-10.573-11.142-18.597-22.261-18.597
		c-11.118,0-20.363,8.023-22.26,18.597C24.199,36.805,16.175,46.05,16.175,57.169s8.023,20.364,18.598,22.262
		c1.896,10.571,11.142,18.597,22.26,18.597c11.119,0,20.363-8.024,22.261-18.597C89.867,77.534,97.891,68.289,97.891,57.169z"/>
	<path fill="#B1896C" d="M19.986,26.068l1.118-1.321c0,0-6.619-8.075-11.482,0c-4.166,6.918,6.33,9.638,5.741,4.979
		C15.179,28.263,11.545,22.4,19.986,26.068z"/>
	<path fill="#B1896C" d="M21.714,23.628l1.423-1.117l-1.423-1.829c0,0-2.438-3.861-3.759-7.215
		c-1.321-3.354-8.536-3.658-8.536-3.658s-1.109,6.401,3.048,9.043C16.626,21.495,17.649,20.173,21.714,23.628z"/>
	<path fill="#B1896C" d="M24.356,21.158l1.423-0.984c0,0-2.846-2.846,0-5.284c2.845-2.438,3.083,0.818,4.064,1.22
		c1.465,0.6,4.349-2.222,0.609-6.3c-2.235-2.439-7.824-0.737-8.434,3.353C21.777,14.787,21.003,18.28,24.356,21.158z"/>
	<path fill="#373C7A" d="M94.232,57.119c0-10.22-7.937-18.583-17.981-19.269c-0.685-10.045-9.049-17.981-19.269-17.981
		c-10.219,0-18.583,7.937-19.268,17.981c-10.046,0.686-17.981,9.049-17.981,19.269c0,10.219,7.936,18.583,17.981,19.269
		c0.685,10.046,9.049,17.981,19.268,17.981c10.22,0,18.584-7.937,19.269-17.981C86.296,75.702,94.232,67.337,94.232,57.119z"/>
	<path fill="#B1896C" d="M87.723,19.883L89.043,21c0,0,8.075-6.619,0-11.482c-6.918-4.166-9.638,6.329-4.979,5.741
		C85.526,15.075,91.39,11.441,87.723,19.883z"/>
	<path fill="#B1896C" d="M90.161,21.611l1.118,1.422l1.828-1.422c0,0,3.861-2.439,7.216-3.76c3.353-1.321,3.658-8.536,3.658-8.536
		s-6.402-1.11-9.044,3.048C92.295,16.522,93.616,17.545,90.161,21.611z"/>
	<path fill="#B1896C" d="M92.632,24.252l0.984,1.423c0,0,2.846-2.846,5.284,0c2.438,2.845-0.817,3.082-1.22,4.064
		c-0.599,1.464,2.222,4.349,6.301,0.609c2.438-2.235,0.736-7.824-3.354-8.434C99.004,21.673,95.511,20.899,92.632,24.252z"/>
	<path fill="#B1896C" d="M93.906,87.933l-1.117,1.32c0,0,6.619,8.075,11.482,0c4.167-6.918-6.329-9.638-5.741-4.979
		C98.716,85.737,102.349,91.601,93.906,87.933z"/>
	<path fill="#B1896C" d="M92.179,90.371l-1.422,1.118l1.422,1.829c0,0,2.439,3.86,3.761,7.215c1.322,3.354,8.535,3.658,8.535,3.658
		s1.11-6.402-3.048-9.044C97.268,92.505,96.243,93.826,92.179,90.371z"/>
	<path fill="#B1896C" d="M89.537,92.842l-1.423,0.983c0,0,2.846,2.846,0,5.284c-2.845,2.438-3.082-0.817-4.064-1.219
		c-1.465-0.601-4.349,2.222-0.609,6.3c2.235,2.438,7.824,0.736,8.435-3.354C92.116,99.213,92.891,95.72,89.537,92.842z"/>
	<path fill="#B1896C" d="M25.89,94.117L24.569,93c0,0-8.075,6.619,0,11.482c6.918,4.166,9.638-6.33,4.979-5.741
		C28.086,98.925,22.223,102.56,25.89,94.117z"/>
	<path fill="#B1896C" d="M23.45,92.39l-1.117-1.424l-1.829,1.424c0,0-3.861,2.438-7.215,3.76s-3.658,8.536-3.658,8.536
		s6.402,1.109,9.044-3.049C21.316,97.479,19.995,96.454,23.45,92.39z"/>
	<path fill="#B1896C" d="M20.979,89.748l-0.984-1.423c0,0-2.845,2.845-5.283,0c-2.439-2.845,0.818-3.083,1.219-4.064
		c0.6-1.465-2.221-4.349-6.3-0.609c-2.438,2.235-0.736,7.825,3.354,8.435C14.608,92.327,18.103,93.102,20.979,89.748z"/>
	<path fill="#B1896C" d="M88.375,59.952c3.354,0,4.877-2.922,4.877-2.922c-1.677-3.593-6.021-2.811-6.021-2.811
		c1.956-0.966,2.286-2.616,2.286-2.616c-2.553-1.232-3.992-0.035-7.105,2.255c-1.718,1.264-2.666,1.056-2.666,1.056
		c0.067-2.371,2.168-5.047,3.621-7.424c1.186-1.939-0.099-3.382-0.099-3.382c-0.982-0.033-2.574,1.66-2.574,1.66
		c0.609-3.252-2.168-5.318-2.168-5.318c-3.015,1.051-3.15,5.285-3.15,5.285c-1.354-1.829-2.811-1.593-2.811-1.593
		c-0.781,2.344,0.783,4.282,3.252,7.537c1.712,2.259,0.998,3.708,0.998,3.708c-19.561,0-18.773-17.884-18.773-17.884
		c2.54,0.155,4.955,1.665,7.454,3.271c1.889,1.214,3.749,0.108,3.749,0.108c0.56-0.966-1.677-2.668-1.677-2.668
		c3.354,0.483,4.776-2.642,4.776-2.642c-1.702-2.947-5.436-2.643-5.436-2.643c2.076-1.796,1.655-2.592,1.655-2.592
		c-0.767-0.939-2.91-0.437-3.587,0.153c-5.716,4.979-6.401,3.354-6.401,3.354c0.444-2.169,3.093-4.801,3.929-6.924
		c0.69-1.757-0.372-3.229-0.372-3.229c-2.643,0-2.439,5.071-2.439,1.718s-2.703-4.856-2.703-4.856h-0.203
		c-3.593,1.676-2.81,6.02-2.81,6.02c-0.965-1.956-2.616-2.286-2.616-2.286c-1.232,2.554-0.035,3.993,2.255,7.106
		c1.264,1.717,1.056,2.666,1.056,2.666c-2.371-0.067-5.047-2.168-7.424-3.621c-1.939-1.187-3.381,0.099-3.381,0.099
		c-0.034,0.982,1.659,2.574,1.659,2.574c-3.252-0.609-5.318,2.168-5.318,2.168c1.051,3.015,5.285,3.149,5.285,3.149
		c-1.83,1.355-1.593,2.812-1.593,2.812c2.344,0.78,4.283-0.784,7.538-3.252c2.258-1.713,3.708-1,3.708-1
		c0,19.562-17.885,18.774-17.885,18.774c0.155-2.54,1.665-4.955,3.271-7.454c1.214-1.889,0.108-3.749,0.108-3.749
		c-0.966-0.56-2.667,1.677-2.667,1.677c0.482-3.354-2.643-4.776-2.643-4.776c-2.947,1.702-2.643,5.437-2.643,5.437
		c-1.796-2.077-2.591-1.656-2.591-1.656c-0.939,0.767-0.437,2.91,0.152,3.587c4.979,5.716,3.354,6.401,3.354,6.401
		c-2.168-0.445-4.801-3.094-6.924-3.929c-1.757-0.69-3.229,0.372-3.229,0.372c0,2.643,5.072,2.439,1.719,2.439
		s-4.877,2.896-4.877,2.896c1.676,3.594,6.021,2.835,6.021,2.835c-1.956,0.966-2.286,2.616-2.286,2.616
		c2.553,1.232,3.992,0.034,7.105-2.255c1.718-1.265,2.666-1.057,2.666-1.057c-0.067,2.372-2.167,5.048-3.621,7.425
		c-1.186,1.938,0.099,3.382,0.099,3.382c0.982,0.033,2.574-1.66,2.574-1.66c-0.609,3.252,2.169,5.317,2.169,5.317
		c3.014-1.05,3.149-5.283,3.149-5.283c1.354,1.829,2.812,1.592,2.812,1.592c0.781-2.343-0.783-4.282-3.252-7.538
		c-1.712-2.258-0.999-3.708-0.999-3.708c19.562,0,18.773,17.886,18.773,17.886c-2.54-0.155-4.955-1.665-7.453-3.271
		c-1.89-1.214-3.75-0.106-3.75-0.106c-0.56,0.966,1.677,2.668,1.677,2.668c-3.354-0.483-4.776,2.642-4.776,2.642
		c1.702,2.947,5.437,2.642,5.437,2.642c-2.077,1.798-1.655,2.594-1.655,2.594c0.766,0.938,2.909,0.436,3.586-0.153
		c5.717-4.979,6.402-3.354,6.402-3.354c-0.445,2.17-3.094,4.802-3.929,6.925c-0.691,1.757,0.372,3.229,0.372,3.229
		c2.642,0,2.438-5.071,2.438-1.719c0,3.354,2.703,4.858,2.703,4.858h0.203c3.593-1.678,2.81-6.021,2.81-6.021
		c0.966,1.957,2.617,2.286,2.617,2.286c1.231-2.553,0.034-3.991-2.256-7.105c-1.264-1.718-1.056-2.666-1.056-2.666
		c2.371,0.067,5.047,2.167,7.424,3.621c1.939,1.187,3.382-0.099,3.382-0.099c0.033-0.981-1.659-2.574-1.659-2.574
		c3.251,0.609,5.317-2.168,5.317-2.168c-1.05-3.014-5.284-3.148-5.284-3.148c1.829-1.355,1.592-2.812,1.592-2.812
		c-2.343-0.782-4.282,0.783-7.537,3.252c-2.259,1.712-3.708,0.999-3.708,0.999c0-19.562,17.884-18.773,17.884-18.773
		c-0.155,2.539-1.665,4.955-3.271,7.453c-1.214,1.89-0.108,3.749-0.108,3.749c0.966,0.561,2.668-1.676,2.668-1.676
		c-0.482,3.354,2.642,4.776,2.642,4.776c2.947-1.702,2.643-5.438,2.643-5.438c1.797,2.077,2.592,1.656,2.592,1.656
		c0.939-0.767,0.437-2.91-0.153-3.586c-4.979-5.717-3.354-6.402-3.354-6.402c2.169,0.444,4.801,3.095,6.924,3.93
		c1.757,0.69,3.229-0.372,3.229-0.372C90.094,59.749,85.021,59.952,88.375,59.952z M68.322,56.891L68.322,56.891
		c-0.955,0-4.522,2.296-7.181,5.235c-2.532,2.801-4.183,6.333-4.183,7.077c0-0.955-2.296-5.148-5.236-7.808
		c-2.801-2.533-5.622-4.286-6.365-4.286c0.954,0,4.521-2.295,7.181-5.235c2.532-2.801,4.183-6.316,4.183-7.061
		c0,0.955,2.297,5.133,5.236,7.792C64.757,55.138,67.578,56.89,68.322,56.891L68.322,56.891L68.322,56.891z"/>
	<path fill="#B1896C" d="M58.194,58.077c0,0,0.932,1.187,0.932,2.15c0,0.966-2.144,4.184-2.144,4.184s-2.412-3.048-2.412-4.099
		s0.829-2.235,0.829-2.235s-0.846,0.947-2.488,0.947c-1.644,0-3.659-1.905-3.659-1.905s2.219-1.921,3.98-1.921
		c1.761,0,2.219,0.896,2.219,0.896s-0.644-1.118-0.644-2.456c0-1.338,2.066-3.506,2.066-3.506s2.083,2.05,2.083,3.709
		c0,1.66-0.745,2.253-0.745,2.253s1.338-1.016,2.438-1.016s3.861,1.93,3.861,1.93s-2.456,1.999-3.861,1.999
		C59.244,59.008,58.194,58.077,58.194,58.077z"/>
	<path fill="#373C7A" d="M126.56,84.539c0.678-0.085,1.229-0.202,1.653-0.35c0.424-0.149,0.752-0.394,0.986-0.731
		c0.232-0.34,0.392-0.785,0.477-1.335c0.085-0.552,0.127-1.271,0.127-2.162c0-0.509,0.011-1.22,0.032-2.131
		c0.021-0.912,0.031-1.876,0.031-2.894c0-1.019,0.01-2.025,0.032-3.021c0.021-0.996,0.032-1.833,0.032-2.512V50.45
		c0-1.441-0.234-2.449-0.7-3.021c-0.467-0.572-1.271-0.858-2.417-0.858h-0.699l-0.19-0.254l0.19-2.099
		c1.102-0.169,2.184-0.36,3.243-0.572c1.06-0.211,2.014-0.424,2.862-0.636c0.975-0.212,1.908-0.423,2.799-0.636l0.382,0.508
		c-0.086,0.34-0.17,0.7-0.255,1.082c-0.085,0.34-0.159,0.71-0.223,1.113c-0.063,0.404-0.117,0.817-0.159,1.241l0.255,0.445
		c1.908-1.314,3.498-2.332,4.77-3.054c1.272-0.72,2.142-1.081,2.608-1.081c1.821,0,3.485,0.33,4.992,0.986
		c1.505,0.657,2.799,1.569,3.88,2.734c1.081,1.167,1.918,2.576,2.512,4.229c0.594,1.654,0.891,3.478,0.891,5.47
		c0,2.29-0.425,4.442-1.271,6.456c-0.851,2.015-1.983,3.785-3.402,5.312c-1.422,1.525-3.096,2.725-5.024,3.593
		c-1.931,0.869-3.976,1.305-6.139,1.305c-0.381,0-0.848-0.011-1.398-0.031c-0.552-0.022-1.061-0.055-1.526-0.097
		c-0.552-0.042-1.124-0.085-1.718-0.127c0,1.103,0.01,2.194,0.032,3.275c0.021,1.082,0.031,2.172,0.031,3.274
		c0,1.95,0.191,3.275,0.572,3.976c0.382,0.7,1.188,1.049,2.418,1.049c0.338,0,0.699-0.011,1.081-0.032
		c0.381-0.021,0.741-0.032,1.081-0.032l0.127,0.19l-0.509,2.417h-6.042c-0.934,0-1.803,0.021-2.607,0.064
		c-0.807,0.042-1.506,0.104-2.1,0.189c-0.721,0.084-1.398,0.148-2.035,0.191L126.56,84.539z M134.255,68.002
		c0.848,0.34,1.854,0.626,3.021,0.859c1.165,0.232,2.278,0.35,3.339,0.35c2.841,0,5.077-0.965,6.71-2.894
		c1.632-1.929,2.449-4.569,2.449-7.918c0-1.611-0.213-3.117-0.637-4.517c-0.425-1.399-1.019-2.608-1.781-3.626
		c-0.764-1.017-1.653-1.822-2.671-2.416c-1.019-0.594-2.12-0.891-3.308-0.891c-0.849,0-1.888,0.286-3.117,0.859
		c-1.229,0.572-2.396,1.325-3.498,2.257c-0.085,1.315-0.159,2.725-0.223,4.229c-0.063,1.505-0.117,3.053-0.159,4.644
		c-0.042,1.59-0.074,3.159-0.095,4.707C134.265,65.194,134.255,66.646,134.255,68.002z"/>
	<path fill="#373C7A" d="M162.686,49.876c0-2.289-0.785-3.434-2.354-3.434c-0.297,0-0.657,0.043-1.081,0.127
		c-0.17,0.043-0.34,0.086-0.509,0.127l0.254-2.353c0.977-0.169,2.004-0.36,3.085-0.573c1.082-0.211,2.067-0.423,2.958-0.636
		c1.061-0.212,2.077-0.445,3.053-0.7l0.382,0.763c-0.212,0.551-0.413,1.495-0.604,2.83c-0.189,1.336-0.372,2.884-0.54,4.643
		c-0.17,1.76-0.298,3.636-0.383,5.628c-0.085,1.994-0.127,3.923-0.127,5.788c0,4.155,1.696,6.233,5.089,6.233
		c1.483,0,2.871-0.414,4.165-1.241c1.293-0.827,2.47-1.622,3.53-2.385V49.938c0-1.272-0.233-2.163-0.699-2.671
		c-0.467-0.508-1.295-0.763-2.481-0.763c-0.085,0-0.212,0.011-0.381,0.032c-0.17,0.021-0.34,0.031-0.509,0.031h-0.637l0.255-2.29
		c1.102-0.169,2.236-0.35,3.403-0.541c1.164-0.191,2.234-0.391,3.211-0.604c1.103-0.212,2.163-0.445,3.18-0.7l0.383,0.763
		c-0.213,0.467-0.404,1.41-0.573,2.83c-0.17,1.421-0.316,3.127-0.444,5.12c-0.127,1.994-0.224,4.209-0.286,6.646
		c-0.063,2.439-0.095,4.93-0.095,7.474c0,1.95,0.867,2.926,2.606,2.926c0.509,0,0.995-0.074,1.462-0.224
		c0.467-0.147,0.869-0.327,1.209-0.541c0.424-0.211,0.807-0.486,1.146-0.826l0.89,1.018c-0.679,0.933-1.335,1.781-1.972,2.544
		c-0.595,0.636-1.198,1.219-1.812,1.749c-0.615,0.53-1.198,0.795-1.749,0.795c-3.477,0-5.363-1.718-5.66-5.151l-0.317-0.128
		c-2.035,1.569-3.869,2.842-5.501,3.816c-1.633,0.975-2.746,1.463-3.34,1.463c-2.758,0-4.855-0.626-6.296-1.877
		c-1.442-1.25-2.162-3.084-2.162-5.501L162.686,49.876z"/>
	<path fill="#373C7A" d="M205.869,63.677c-0.595,0-1.188-0.042-1.781-0.127c-0.594-0.084-1.229-0.211-1.907-0.381
		c-1.78,0.977-2.672,1.908-2.672,2.798c0,0.977,0.614,1.718,1.845,2.227c1.229,0.509,3.159,0.806,5.788,0.891
		c4.918,0.254,8.404,0.901,10.463,1.939c2.056,1.039,3.085,2.66,3.085,4.866c0,1.482-0.445,2.902-1.336,4.261
		c-0.892,1.355-2.067,2.576-3.53,3.657c-1.463,1.082-3.139,1.939-5.024,2.575c-1.888,0.637-3.848,0.955-5.883,0.955
		c-3.053,0-5.417-0.741-7.092-2.226c-1.675-1.485-2.512-3.562-2.512-6.233c0.509-0.721,1.122-1.41,1.845-2.065
		c0.72-0.658,1.419-1.263,2.098-1.813c0.765-0.636,1.549-1.251,2.354-1.845v-0.381c-0.977-0.127-1.887-0.381-2.734-0.764
		c-0.849-0.382-1.58-0.848-2.193-1.398c-0.615-0.551-1.104-1.176-1.463-1.876c-0.361-0.7-0.541-1.432-0.541-2.194
		c0.467-0.509,1.018-1.007,1.652-1.495c0.637-0.486,1.229-0.922,1.781-1.304c0.636-0.466,1.271-0.891,1.908-1.271v-0.255
		c-1.484-0.805-2.641-1.939-3.467-3.401c-0.826-1.463-1.239-3.148-1.239-5.058c0-1.526,0.316-2.967,0.954-4.325
		c0.636-1.356,1.494-2.553,2.574-3.593c1.081-1.039,2.343-1.866,3.784-2.481c1.441-0.614,2.947-0.922,4.517-0.922
		c1.229,0,2.362,0.117,3.402,0.35c1.038,0.233,1.981,0.35,2.83,0.35c0.806-0.085,1.717-0.232,2.734-0.445
		c1.018-0.211,1.972-0.423,2.862-0.636c1.06-0.254,2.119-0.53,3.18-0.827l0.19,0.254l-0.699,3.562
		c-0.552,0.043-1.123,0.106-1.718,0.191c-0.509,0.085-1.093,0.159-1.749,0.222c-0.656,0.064-1.324,0.118-2.004,0.16l-0.254,0.318
		c1.695,1.908,2.544,4.05,2.544,6.423c0,1.612-0.329,3.107-0.985,4.484c-0.657,1.379-1.548,2.576-2.671,3.594
		c-1.124,1.018-2.448,1.812-3.977,2.385C209.304,63.393,207.649,63.677,205.869,63.677z M207.396,60.879
		c1.95,0,3.485-0.613,4.61-1.844c1.122-1.229,1.686-2.926,1.686-5.088c0-2.459-0.678-4.452-2.034-5.979
		c-1.358-1.526-3.117-2.29-5.279-2.29c-1.95,0-3.487,0.626-4.61,1.876c-1.124,1.251-1.687,2.958-1.687,5.12
		c0,2.459,0.668,4.442,2.004,5.947C203.42,60.126,205.19,60.879,207.396,60.879z M207.27,84.222c1.229,0,2.404-0.171,3.528-0.509
		c1.123-0.34,2.12-0.807,2.989-1.398c0.868-0.596,1.56-1.263,2.066-2.003c0.51-0.742,0.764-1.538,0.764-2.386
		c0-0.636-0.17-1.167-0.509-1.59c-0.34-0.425-0.965-0.816-1.876-1.177c-0.912-0.36-2.174-0.689-3.784-0.985
		c-1.612-0.297-3.688-0.614-6.232-0.954c-0.764,0.594-1.421,1.208-1.973,1.846c-0.508,0.55-0.965,1.166-1.367,1.844
		s-0.604,1.377-0.604,2.099c0,1.611,0.614,2.884,1.845,3.816C203.347,83.754,205.063,84.222,207.27,84.222z"/>
	<path fill="#373C7A" d="M226.477,70.102c1.271-0.338,2.183-0.836,2.734-1.495c0.551-0.657,0.826-1.536,0.826-2.64V49.813
		c0-2.29-0.785-3.435-2.354-3.435c-0.297,0-0.657,0.043-1.081,0.127c-0.17,0.042-0.34,0.085-0.509,0.127l0.255-2.353
		c1.059-0.169,2.13-0.35,3.211-0.541c1.082-0.191,2.066-0.391,2.958-0.604c1.06-0.212,2.057-0.445,2.988-0.7l0.318,0.763
		c-0.213,0.467-0.403,1.431-0.573,2.894c-0.17,1.462-0.316,3.233-0.444,5.31c-0.127,2.079-0.232,4.357-0.317,6.837
		c-0.085,2.479-0.127,4.972-0.127,7.473c0,2.375,0.741,3.562,2.226,3.562c0.212,0,0.445,0,0.7,0c0.254,0,0.486-0.021,0.699-0.063
		c0.255,0,0.53-0.021,0.827-0.063l0.127,0.254l-0.509,2.734c-0.637,0-1.294-0.021-1.973-0.063c-0.595-0.042-1.209-0.074-1.845-0.095
		c-0.636-0.022-1.251-0.032-1.844-0.032c-0.68,0-1.399,0.042-2.163,0.127c-0.763,0.084-1.463,0.169-2.1,0.254
		c-0.764,0.127-1.525,0.254-2.289,0.382L226.477,70.102z M231.882,33.658c-0.934,0-1.686-0.296-2.258-0.891
		c-0.573-0.593-0.857-1.377-0.857-2.353c0-1.06,0.358-1.95,1.081-2.671c0.721-0.721,1.609-1.081,2.671-1.081
		c0.891,0,1.632,0.297,2.227,0.89c0.593,0.594,0.891,1.379,0.891,2.354c0,1.061-0.36,1.951-1.081,2.671
		C233.831,33.298,232.94,33.658,231.882,33.658z"/>
	<path fill="#373C7A" d="M262.028,70.102c1.271-0.338,2.184-0.836,2.734-1.495c0.551-0.657,0.826-1.536,0.826-2.64l0.255-12.593
		c0-2.119-0.456-3.752-1.367-4.897c-0.912-1.145-2.216-1.717-3.911-1.717c-0.763,0-1.548,0.127-2.354,0.381
		c-0.806,0.254-1.558,0.562-2.258,0.922c-0.699,0.36-1.336,0.721-1.907,1.081c-0.572,0.361-1.008,0.668-1.305,0.922
		c-0.043,1.103-0.095,2.417-0.159,3.944c-0.062,1.526-0.127,3.053-0.189,4.579c-0.063,1.526-0.117,2.937-0.159,4.229
		c-0.043,1.294-0.063,2.258-0.063,2.894c0,1.314,0.169,2.237,0.51,2.768c0.339,0.53,0.933,0.795,1.78,0.795c0.211,0,0.445,0,0.699,0
		s0.487-0.021,0.699-0.063c0.255,0,0.53-0.021,0.827-0.063l0.127,0.254l-0.572,2.734c-0.679,0-1.357-0.021-2.035-0.063
		c-0.594-0.042-1.219-0.074-1.876-0.095c-0.658-0.022-1.283-0.032-1.876-0.032c-0.68,0-1.39,0.021-2.131,0.063
		c-0.742,0.042-1.41,0.084-2.004,0.127c-0.763,0.084-1.484,0.148-2.162,0.19l0.318-2.607c1.229-0.211,2.099-0.593,2.606-1.145
		c0.509-0.55,0.764-1.419,0.764-2.607V50.448c0-1.441-0.233-2.449-0.699-3.021c-0.467-0.572-1.271-0.858-2.417-0.858h-0.699
		l-0.191-0.254l0.191-2.099c1.103-0.169,2.184-0.36,3.244-0.572c1.059-0.211,2.013-0.424,2.86-0.636
		c0.976-0.212,1.908-0.423,2.8-0.636l0.381,0.508c-0.127,0.382-0.233,0.806-0.317,1.272c-0.086,0.382-0.159,0.827-0.223,1.336
		c-0.064,0.509-0.117,1.04-0.159,1.59l0.127,0.191c0.382-0.254,0.986-0.646,1.812-1.176c0.826-0.53,1.718-1.071,2.672-1.622
		c0.954-0.551,1.876-1.028,2.767-1.431c0.891-0.403,1.59-0.604,2.099-0.604c2.672,0,4.791,0.731,6.36,2.194
		c1.567,1.463,2.354,3.466,2.354,6.011c0,0.551-0.043,1.474-0.128,2.766c-0.085,1.294-0.19,2.704-0.318,4.229
		c-0.127,1.526-0.232,3.021-0.317,4.484c-0.086,1.462-0.128,2.661-0.128,3.593c0,2.375,0.742,3.562,2.228,3.562
		c0.212,0,0.444,0,0.698,0c0.256,0,0.487-0.021,0.7-0.063c0.254,0,0.529-0.021,0.826-0.063l0.128,0.254l-0.509,2.735
		c-0.636,0-1.294-0.022-1.972-0.064c-0.596-0.042-1.208-0.074-1.846-0.095c-0.636-0.022-1.251-0.032-1.844-0.032
		c-0.68,0-1.398,0.042-2.163,0.127c-0.763,0.084-1.463,0.169-2.099,0.254c-0.764,0.127-1.526,0.254-2.289,0.382L262.028,70.102z"/>
</g>
</svg>
